<svg width="282" height="278" viewBox="0 0 282 278" fill="none" xmlns="http://www.w3.org/2000/svg">
<g clip-path="url(#clip0_2_2283)">
<path d="M44.9769 163.68L25.4116 165.498L32.6128 172.701L15.951 189.366C15.0473 190.27 15.0473 191.741 15.951 192.655C16.4029 193.107 16.999 193.337 17.5951 193.337C18.1912 193.337 18.7873 193.107 19.2391 192.655L35.9009 175.989L43.1598 183.25L44.9769 163.68Z" fill="#5F56FF"/>
<path d="M146.226 272.884C146.226 275.711 121.344 278 90.6449 278C59.9462 278 35.0641 275.711 35.0641 272.884C35.0641 270.057 59.9462 267.768 90.6449 267.768C121.344 267.768 146.226 270.057 146.226 272.884Z" fill="url(#paint0_radial_2_2283)"/>
<path d="M206.497 253.892C231.587 253.892 251.926 251.61 251.926 248.795C251.926 245.98 231.587 243.698 206.497 243.698C181.408 243.698 161.069 245.98 161.069 248.795C161.069 251.61 181.408 253.892 206.497 253.892Z" fill="url(#paint1_radial_2_2283)"/>
<path d="M21.0645 255.748C32.3321 255.748 41.4662 254.917 41.4662 253.892C41.4662 252.867 32.3321 252.036 21.0645 252.036C9.7969 252.036 0.66272 252.867 0.66272 253.892C0.66272 254.917 9.7969 255.748 21.0645 255.748Z" fill="url(#paint2_radial_2_2283)"/>
<path d="M134.178 134.158C131.111 134.158 128.967 131.956 128.967 128.811C128.967 125.667 131.111 123.465 134.178 123.465C137.245 123.465 139.389 125.667 139.389 128.811C139.389 131.966 137.245 134.158 134.178 134.158ZM134.178 126.157C132.784 126.157 131.976 127.129 131.976 128.821C131.976 130.514 132.774 131.485 134.178 131.485C135.553 131.485 136.341 130.514 136.341 128.821C136.341 127.129 135.553 126.157 134.178 126.157ZM119.237 133.802L133.515 109.483H137.168L122.929 133.802H119.237ZM122.266 119.801C119.199 119.801 117.055 117.599 117.055 114.454C117.055 111.329 119.199 109.146 122.266 109.146C125.352 109.146 127.506 111.329 127.506 114.454C127.515 117.608 125.352 119.801 122.266 119.801ZM122.266 111.8C120.891 111.8 120.103 112.771 120.103 114.464C120.103 116.176 120.891 117.156 122.266 117.156C123.641 117.156 124.468 116.147 124.468 114.464C124.468 112.771 123.67 111.8 122.266 111.8Z" fill="#D65EFF"/>
<path d="M243.552 85.0087H152.196L170.281 103.097L86.8566 188.875L131.362 238.948L219.353 152.179L243.552 176.384V85.0087Z" fill="#5F56FF"/>
<path d="M131.582 232.207L93.2012 189.019L176.808 103.059L163.415 89.663H238.898V165.161L219.371 145.63L131.582 232.207ZM98.2776 189.125L131.765 226.802L219.4 140.38L235.187 156.17V93.3749H172.385L182.029 103.02L98.2776 189.125Z" fill="#C2BFFF"/>
<path d="M156.032 175.576L127.516 147.063L86.8566 188.875L131.362 238.948L133.188 237.149L156.032 175.576Z" fill="#4E45F7"/>
<path d="M156.032 175.585L106.961 126.505L23.3486 210.135L72.4191 259.215L156.032 175.585Z" fill="#766FFF"/>
<path d="M108.913 191.318C118.683 191.318 126.603 183.396 126.603 173.624C126.603 163.852 118.683 155.93 108.913 155.93C99.1425 155.93 91.2222 163.852 91.2222 173.624C91.2222 183.396 99.1425 191.318 108.913 191.318Z" fill="#C2BFFF"/>
<path d="M72.9452 235.246C76.0196 235.246 78.5119 232.753 78.5119 229.678C78.5119 226.603 76.0196 224.11 72.9452 224.11C69.8707 224.11 67.3784 226.603 67.3784 229.678C67.3784 232.753 69.8707 235.246 72.9452 235.246Z" fill="#A09AFF"/>
<path d="M51.6208 215.772C54.6952 215.772 57.1876 213.28 57.1876 210.205C57.1876 207.13 54.6952 204.637 51.6208 204.637C48.5464 204.637 46.0541 207.13 46.0541 210.205C46.0541 213.28 48.5464 215.772 51.6208 215.772Z" fill="#A09AFF"/>
<path d="M150.378 169.931L72.4249 247.381L35.1788 210.137L113.142 132.687L110.517 130.052L29.9197 210.128L72.4153 252.632L153.013 172.556L150.378 169.931Z" fill="#C2BFFF"/>
<path d="M167.241 198.848C166.953 182.913 179.624 169.768 195.555 169.47C211.477 169.181 224.629 181.855 224.918 197.79C225.206 213.714 212.534 226.87 196.613 227.168C180.682 227.456 167.529 214.782 167.241 198.848Z" fill="#5A30FF"/>
<path d="M172.749 198.742C172.509 185.846 182.767 175.22 195.651 174.98C208.534 174.749 219.167 185 219.408 197.886C219.648 210.772 209.39 221.417 196.506 221.648C183.623 221.888 172.98 211.637 172.749 198.742Z" fill="#9F64FF"/>
<path d="M196.065 224.091C189.364 224.091 183.038 221.542 178.192 216.869C173.241 212.089 170.443 205.666 170.318 198.78C170.193 191.895 172.751 185.375 177.529 180.423C182.307 175.47 188.73 172.672 195.614 172.547C195.767 172.547 195.931 172.547 196.085 172.547C210.074 172.547 221.582 183.798 221.842 197.847C221.967 204.733 219.409 211.253 214.631 216.205C209.853 221.167 203.43 223.966 196.556 224.091C196.392 224.091 196.229 224.091 196.065 224.091ZM196.085 173.47C195.931 173.47 195.777 173.47 195.623 173.47C188.989 173.595 182.798 176.288 178.192 181.067C173.587 185.846 171.116 192.126 171.241 198.761C171.366 205.396 174.058 211.589 178.836 216.196C183.615 220.802 189.864 223.292 196.527 223.148C203.161 223.023 209.353 220.331 213.958 215.551C218.563 210.772 221.034 204.483 220.909 197.847C220.659 184.317 209.564 173.47 196.085 173.47Z" fill="#457FEF"/>
<path d="M192.403 212.618C190.345 212.368 188.394 211.695 187.019 210.762L185.865 209.964L187.99 203.694L189.99 204.973C191.307 205.81 192.989 206.29 194.604 206.29H194.749C196.085 206.261 197.643 205.694 197.604 204.175C197.585 203.357 197.306 202.396 194.191 201.203C190.336 199.77 186.365 197.626 186.269 192.702C186.201 189 188.519 185.932 192.162 184.692L192.076 182.115L198.277 181.99L198.344 184.182C199.921 184.394 201.344 184.855 202.652 185.596L204.017 186.365L201.806 192.558L199.892 191.51C199.325 191.202 197.998 190.471 195.922 190.471H195.758C194.249 190.5 193.393 191.096 193.412 192.097C193.422 192.837 193.71 193.472 197.277 194.866C200.719 196.203 204.69 198.415 204.786 203.771C204.863 207.656 202.44 210.868 198.623 212.147L198.71 214.839L192.47 214.964L192.403 212.618Z" fill="#5A30FF"/>
<path d="M-0.00102368 206.906C-0.202926 195.722 8.69039 186.491 19.8719 186.279C31.0535 186.077 40.2833 194.972 40.4852 206.166C40.6871 217.35 31.7938 226.581 20.6123 226.783C9.44032 226.985 0.210493 218.09 -0.00102368 206.906Z" fill="#5A30FF"/>
<path d="M3.87403 206.83C3.70097 197.781 10.9022 190.318 19.9493 190.145C28.9965 189.982 36.4572 197.175 36.6303 206.224C36.8034 215.273 29.6022 222.745 20.555 222.908C11.4982 223.081 4.03747 215.879 3.87403 206.83Z" fill="#9F64FF"/>
<path d="M20.2359 224.629C15.5345 224.629 11.0926 222.841 7.6891 219.561C4.20869 216.205 2.24735 211.695 2.16082 206.868C2.07429 202.031 3.87218 197.453 7.218 193.982C10.5734 190.501 15.0826 188.539 19.909 188.452C20.0244 188.452 20.1301 188.452 20.2455 188.452C30.0714 188.452 38.1475 196.347 38.3302 206.214C38.4167 211.041 36.6188 215.619 33.273 219.1C29.9176 222.581 25.4084 224.543 20.582 224.629C20.4666 224.629 20.3513 224.629 20.2359 224.629ZM20.2455 189.097C20.1398 189.097 20.034 189.097 19.9186 189.097C15.2652 189.183 10.9195 191.078 7.67949 194.424C4.44905 197.78 2.71846 202.194 2.80499 206.848C2.89152 211.503 4.78555 215.849 8.14098 219.09C11.4964 222.321 15.8806 224.071 20.5628 223.975C25.2162 223.889 29.5619 221.994 32.7923 218.638C36.0227 215.282 37.7533 210.868 37.6668 206.214C37.5034 196.713 29.7157 189.097 20.2455 189.097Z" fill="#457FEF"/>
<path d="M17.6718 216.571C16.2296 216.398 14.8547 215.926 13.8933 215.263L13.0857 214.705L14.5759 210.301L15.9796 211.195C16.9026 211.782 18.0852 212.118 19.2197 212.118H19.3254C20.2676 212.099 21.3541 211.695 21.3348 210.637C21.3252 210.07 21.1329 209.387 18.9409 208.551C16.2296 207.541 13.4414 206.041 13.3837 202.579C13.3357 199.982 14.9605 197.828 17.5179 196.953L17.4602 195.145L21.8156 195.059L21.8636 196.597C22.9693 196.742 23.9692 197.069 24.8826 197.588L25.844 198.126L24.2865 202.473L22.9501 201.733C22.5559 201.511 21.6233 201.002 20.1619 201.002H20.0465C18.9889 201.021 18.3832 201.434 18.4025 202.146C18.4121 202.665 18.614 203.108 21.1137 204.089C23.5269 205.021 26.3151 206.579 26.392 210.339C26.4401 213.061 24.748 215.321 22.0655 216.224L22.1232 218.119L17.7487 218.205L17.6718 216.571Z" fill="#5A30FF"/>
<path d="M203.721 222.946C203.519 211.762 212.412 202.531 223.594 202.319C234.775 202.117 244.005 211.012 244.207 222.206C244.409 233.39 235.516 242.621 224.334 242.823C213.153 243.035 203.923 234.14 203.721 222.946Z" fill="#5A30FF"/>
<path d="M207.585 222.879C207.412 213.83 214.613 206.368 223.66 206.194C232.708 206.031 240.168 213.224 240.341 222.273C240.515 231.322 233.313 238.794 224.266 238.957C215.219 239.131 207.749 231.928 207.585 222.879Z" fill="#9F64FF"/>
<path d="M223.958 240.669C219.257 240.669 214.815 238.88 211.411 235.601C207.931 232.245 205.969 227.735 205.883 222.908C205.796 218.07 207.594 213.493 210.94 210.022C214.295 206.54 218.805 204.579 223.631 204.492C223.746 204.492 223.852 204.492 223.968 204.492C233.793 204.492 241.87 212.387 242.052 222.254C242.139 227.081 240.341 231.658 236.995 235.14C233.64 238.621 229.13 240.582 224.304 240.669C224.179 240.669 224.064 240.669 223.958 240.669ZM223.968 205.136C223.862 205.136 223.756 205.136 223.641 205.136C218.987 205.223 214.642 207.117 211.402 210.464C208.171 213.82 206.441 218.224 206.527 222.888C206.614 227.543 208.508 231.889 211.863 235.13C215.218 238.361 219.603 240.111 224.285 240.015C228.938 239.929 233.284 238.034 236.514 234.678C239.745 231.322 241.475 226.908 241.389 222.254C241.225 212.753 233.428 205.136 223.968 205.136Z" fill="#457FEF"/>
<path d="M221.392 232.62C219.95 232.447 218.575 231.976 217.613 231.312L216.806 230.755L218.296 226.35L219.7 227.245C220.623 227.831 221.805 228.168 222.94 228.168H223.045C223.988 228.149 225.074 227.745 225.055 226.687C225.045 226.12 224.853 225.437 222.661 224.6C219.95 223.59 217.161 222.09 217.104 218.628C217.056 216.032 218.68 213.878 221.238 213.003L221.18 211.195L225.536 211.108L225.584 212.647C226.689 212.791 227.689 213.118 228.603 213.637L229.564 214.176L228.006 218.523L226.67 217.782C226.276 217.561 225.343 217.051 223.882 217.051H223.766C222.709 217.071 222.103 217.484 222.122 218.196C222.132 218.715 222.334 219.157 224.834 220.138C227.247 221.071 230.035 222.629 230.112 226.389C230.16 229.11 228.468 231.37 225.785 232.274L225.843 234.168L221.469 234.255L221.392 232.62Z" fill="#5A30FF"/>
<path d="M281.999 130.956L262.434 132.773L269.635 139.976L252.974 156.641C252.07 157.545 252.07 159.016 252.974 159.93C253.425 160.382 254.022 160.613 254.618 160.613C255.214 160.613 255.81 160.382 256.262 159.93L272.923 143.265L280.182 150.525L281.999 130.956Z" fill="#CA4BF7"/>
<path d="M271.713 174.384L252.148 176.201L259.349 183.404L242.687 200.069C241.784 200.973 241.784 202.444 242.687 203.358C243.139 203.81 243.735 204.041 244.331 204.041C244.928 204.041 245.524 203.81 245.975 203.358L262.637 186.693L269.896 193.953L271.713 174.384Z" fill="#5F56FF"/>
<path d="M215.574 44.9758L196.008 46.7933L203.21 53.996L186.548 70.6612C185.644 71.5651 185.644 73.0364 186.548 73.95C187 74.402 187.596 74.6327 188.192 74.6327C188.788 74.6327 189.384 74.402 189.836 73.95L206.498 57.2848L213.757 64.5452L215.574 44.9758Z" fill="#D250FF"/>
<path d="M162.196 9.89526C161.407 9.89526 160.754 9.24134 160.754 8.4528V1.44246C160.754 0.644298 161.407 0 162.196 0C162.994 0 163.638 0.653914 163.638 1.44246V8.4528C163.638 9.24134 162.994 9.89526 162.196 9.89526Z" fill="#5A30FF"/>
<path d="M150.073 13.9824C150.707 13.5015 150.832 12.588 150.351 11.9629L146.111 6.38542C145.631 5.75073 144.717 5.62572 144.092 6.10654C143.458 6.58736 143.333 7.50092 143.814 8.12598L148.054 13.7035C148.534 14.3382 149.438 14.4632 150.073 13.9824Z" fill="#5A30FF"/>
<path d="M142.284 22.6274C141.861 23.3006 140.967 23.5121 140.294 23.089L134.343 19.3867C133.67 18.9636 133.458 18.0693 133.881 17.3961C134.304 16.723 135.199 16.5114 135.872 16.9345L141.823 20.6368C142.496 21.0599 142.698 21.9543 142.284 22.6274Z" fill="#5A30FF"/>
<path d="M139.294 33.7342C139.266 32.9456 138.593 32.3206 137.795 32.3494L130.795 32.6283C130.007 32.6572 129.382 33.3303 129.411 34.1285C129.44 34.917 130.113 35.5421 130.911 35.5132L137.91 35.2343C138.698 35.1959 139.323 34.5227 139.294 33.7342Z" fill="#5A30FF"/>
<path d="M175.214 13.232C174.55 12.7897 174.377 11.8858 174.82 11.2318L178.723 5.41393C179.165 4.7504 180.069 4.5773 180.723 5.01966C181.386 5.46201 181.559 6.36595 181.117 7.01986L177.214 12.8378C176.771 13.5013 175.868 13.6744 175.214 13.232Z" fill="#5A30FF"/>
<path d="M183.502 21.3964C183.964 22.0407 184.868 22.2042 185.512 21.7426L191.232 17.6941C191.877 17.2325 192.04 16.3285 191.579 15.6843C191.117 15.04 190.213 14.8765 189.569 15.3381L183.849 19.3866C183.195 19.8481 183.041 20.7521 183.502 21.3964Z" fill="#5A30FF"/>
<path d="M187.146 32.3109C187.127 31.5223 187.771 30.8588 188.559 30.8395L195.559 30.7049C196.347 30.6857 197.01 31.33 197.03 32.1185C197.049 32.9071 196.405 33.5706 195.616 33.5898L188.617 33.7245C187.819 33.7341 187.165 33.0994 187.146 32.3109Z" fill="#5A30FF"/>
<path d="M142.735 34.6478C142.533 23.4639 151.427 14.2322 162.608 14.0206C173.79 13.8187 183.02 22.7138 183.221 33.9073C183.423 45.0912 174.53 54.3229 163.348 54.5248C152.167 54.7364 142.937 45.8316 142.735 34.6478Z" fill="#5A30FF"/>
<path d="M146.599 34.5805C146.426 25.5315 153.628 18.0692 162.675 17.8961C171.722 17.7326 179.183 24.9256 179.356 33.9746C179.529 43.0237 172.328 50.4956 163.28 50.6591C154.233 50.8225 146.763 43.6295 146.599 34.5805Z" fill="#9F64FF"/>
<path d="M162.963 52.3705C158.262 52.3705 153.82 50.5818 150.416 47.3027C146.936 43.9465 144.975 39.4365 144.888 34.609C144.802 29.772 146.599 25.1946 149.945 21.7231C153.301 18.242 157.81 16.2802 162.636 16.1937C162.752 16.1937 162.857 16.1937 162.973 16.1937C172.799 16.1937 180.875 24.0887 181.058 33.9551C181.144 38.7826 179.346 43.3599 176 46.8411C172.645 50.3222 168.136 52.284 163.309 52.3705C163.194 52.3705 163.079 52.3705 162.963 52.3705ZM162.973 16.838C162.867 16.838 162.761 16.838 162.646 16.838C157.993 16.9245 153.647 18.8189 150.407 22.1654C147.176 25.5216 145.446 29.9259 145.532 34.5898C145.619 39.2441 147.513 43.5907 150.868 46.8315C154.224 50.0626 158.608 51.8127 163.29 51.7166C167.943 51.63 172.289 49.7356 175.52 46.3795C178.75 43.0234 180.481 38.6095 180.394 33.9551C180.231 24.4541 172.443 16.838 162.973 16.838Z" fill="#457FEF"/>
<path d="M160.397 44.3217C158.955 44.1486 157.58 43.6774 156.619 43.0139L155.811 42.4562L157.301 38.0519L158.705 38.9462C159.628 39.5328 160.811 39.8694 161.945 39.8694H162.051C162.993 39.8501 164.079 39.4462 164.06 38.3884C164.051 37.8211 163.858 37.1383 161.666 36.3017C158.955 35.292 156.167 33.7918 156.109 30.3299C156.061 27.7335 157.686 25.5794 160.243 24.7043L160.186 22.8964L164.541 22.8099L164.589 24.3485C165.695 24.4928 166.695 24.8197 167.608 25.339L168.569 25.8775L167.012 30.2241L165.675 29.4837C165.281 29.2625 164.349 28.7528 162.887 28.7528H162.772C161.714 28.772 161.109 29.1856 161.128 29.8972C161.137 30.4165 161.339 30.8588 163.839 31.8397C166.252 32.7725 169.04 34.3303 169.117 38.0903C169.165 40.8118 167.473 43.0716 164.791 43.9755L164.849 45.87L160.474 45.9565L160.397 44.3217Z" fill="#5A30FF"/>
</g>
<defs>
<radialGradient id="paint0_radial_2_2283" cx="0" cy="0" r="1" gradientUnits="userSpaceOnUse" gradientTransform="translate(90.6449 272.884) rotate(90) scale(5.11589 55.5808)">
<stop stop-color="#5F56FF" stop-opacity="0.44"/>
<stop offset="1" stop-color="#5F56FF" stop-opacity="0"/>
</radialGradient>
<radialGradient id="paint1_radial_2_2283" cx="0" cy="0" r="1" gradientUnits="userSpaceOnUse" gradientTransform="translate(206.497 248.795) rotate(90) scale(5.09667 45.428)">
<stop stop-color="#5F56FF" stop-opacity="0.44"/>
<stop offset="1" stop-color="#5F56FF" stop-opacity="0"/>
</radialGradient>
<radialGradient id="paint2_radial_2_2283" cx="0" cy="0" r="1" gradientUnits="userSpaceOnUse" gradientTransform="translate(21.0645 253.892) rotate(90) scale(1.85598 20.4018)">
<stop stop-color="#5F56FF" stop-opacity="0.44"/>
<stop offset="1" stop-color="#5F56FF" stop-opacity="0"/>
</radialGradient>
<clipPath id="clip0_2_2283">
<rect width="282" height="278" fill="white"/>
</clipPath>
</defs>
</svg>
