<svg width="44" height="44" viewBox="0 0 44 44" fill="none" xmlns="http://www.w3.org/2000/svg">
<path d="M30.6515 36.2119L29.4782 26.8179C29.3119 25.4873 28.6652 24.2633 27.6598 23.376C26.6544 22.4888 25.3594 21.9994 24.0185 21.9999H19.9778C18.6375 22.0003 17.3435 22.49 16.3388 23.3772C15.3341 24.2644 14.688 25.4879 14.5218 26.8179L13.3467 36.2119C13.2822 36.728 13.3282 37.2519 13.4817 37.7489C13.6353 38.2458 13.8928 38.7044 14.2371 39.0942C14.5815 39.484 15.0048 39.7961 15.4791 40.0097C15.9533 40.2233 16.4675 40.3336 16.9877 40.3332H27.0123C27.5323 40.3333 28.0463 40.2228 28.5203 40.0091C28.9943 39.7954 29.4175 39.4833 29.7616 39.0935C30.1058 38.7037 30.3631 38.2452 30.5165 37.7484C30.67 37.2516 30.716 36.7278 30.6515 36.2119V36.2119Z" stroke="#2B52DB" stroke-width="2.66667" stroke-linecap="round" stroke-linejoin="round"/>
<path d="M22.0007 14.6666C25.0383 14.6666 27.5007 12.2041 27.5007 9.16656C27.5007 6.129 25.0383 3.66656 22.0007 3.66656C18.9632 3.66656 16.5007 6.129 16.5007 9.16656C16.5007 12.2041 18.9632 14.6666 22.0007 14.6666Z" stroke="#2B52DB" stroke-width="2.66667"/>
<path d="M7.33403 20.1666C9.35907 20.1666 11.0007 18.525 11.0007 16.4999C11.0007 14.4749 9.35907 12.8333 7.33403 12.8333C5.30898 12.8333 3.66736 14.4749 3.66736 16.4999C3.66736 18.525 5.30898 20.1666 7.33403 20.1666Z" stroke="#2B52DB" stroke-width="2.66667"/>
<path d="M36.6674 20.1666C38.6924 20.1666 40.3341 18.525 40.3341 16.4999C40.3341 14.4749 38.6924 12.8333 36.6674 12.8333C34.6424 12.8333 33.0007 14.4749 33.0007 16.4999C33.0007 18.525 34.6424 20.1666 36.6674 20.1666Z" stroke="#2B52DB" stroke-width="2.66667"/>
<path d="M36.6674 25.6666H37.2284C38.0964 25.6665 38.9363 25.9743 39.5986 26.5352C40.261 27.0962 40.7028 27.8739 40.8456 28.7301L41.4561 32.3967C41.5437 32.9221 41.5158 33.4602 41.3744 33.9736C41.233 34.4871 40.9814 34.9636 40.6371 35.37C40.2928 35.7763 39.8642 36.1028 39.381 36.3268C38.8977 36.5507 38.3715 36.6666 37.8389 36.6666H31.1674M7.3341 25.6666H6.7731C5.90513 25.6665 5.06527 25.9743 4.40292 26.5352C3.74058 27.0962 3.29872 27.8739 3.15593 28.7301L2.54543 32.3967C2.45782 32.9221 2.48571 33.4602 2.62714 33.9736C2.76858 34.4871 3.02018 34.9636 3.36443 35.37C3.70869 35.7763 4.13734 36.1028 4.62057 36.3268C5.1038 36.5507 5.63001 36.6666 6.1626 36.6666H12.8341L7.3341 25.6666Z" stroke="#2B52DB" stroke-width="2.66667" stroke-linecap="round" stroke-linejoin="round"/>
</svg>
