<svg width="22" height="22" viewBox="0 0 22 22" fill="none" xmlns="http://www.w3.org/2000/svg">
<path d="M6.1755 7.8825C7.63743 7.8825 8.82256 6.69737 8.82256 5.23544C8.82256 3.77351 7.63743 2.58838 6.1755 2.58838C4.71357 2.58838 3.52844 3.77351 3.52844 5.23544C3.52844 6.69737 4.71357 7.8825 6.1755 7.8825Z" stroke="#FFD61B" stroke-width="1.76471"/>
<path d="M8.82267 11.4119H5.20326C4.55819 11.412 3.93539 11.6478 3.45186 12.0748C2.96833 12.5017 2.65737 13.0906 2.57738 13.7307L2.01179 18.2519C1.98076 18.5002 2.0029 18.7523 2.07673 18.9914C2.15057 19.2305 2.27442 19.4512 2.44006 19.6387C2.6057 19.8263 2.80935 19.9765 3.03748 20.0794C3.26561 20.1823 3.51301 20.2354 3.76326 20.2354H7.94032L8.82267 11.4119ZM19.163 18.2519L18.5983 13.7307C18.5182 13.0903 18.207 12.5012 17.7231 12.0742C17.2392 11.6472 16.616 11.4116 15.9706 11.4119H14.0259C13.3808 11.412 12.758 11.6478 12.2745 12.0748C11.791 12.5017 11.48 13.0906 11.4 13.7307L10.8344 18.2519C10.8034 18.5003 10.8256 18.7524 10.8994 18.9916C10.9733 19.2308 11.0973 19.4515 11.263 19.6391C11.4287 19.8267 11.6325 19.9769 11.8607 20.0797C12.089 20.1825 12.3365 20.2356 12.5868 20.2354H17.4115C17.6617 20.2354 17.9091 20.1823 18.1373 20.0794C18.3654 19.9765 18.5691 19.8263 18.7347 19.6387C18.9003 19.4512 19.0242 19.2305 19.098 18.9914C19.1719 18.7523 19.194 18.5002 19.163 18.2519Z" stroke="#FFD61B" stroke-width="1.76471" stroke-linecap="round" stroke-linejoin="round"/>
<path d="M14.9991 7.8825C16.461 7.8825 17.6462 6.69737 17.6462 5.23544C17.6462 3.77351 16.461 2.58838 14.9991 2.58838C13.5372 2.58838 12.3521 3.77351 12.3521 5.23544C12.3521 6.69737 13.5372 7.8825 14.9991 7.8825Z" stroke="#FFD61B" stroke-width="1.76471"/>
</svg>
