<svg width="22" height="22" viewBox="0 0 22 22" fill="none" xmlns="http://www.w3.org/2000/svg">
<path d="M1.76379 6.17657C1.76379 5.70854 1.94972 5.25968 2.28066 4.92874C2.61161 4.59779 3.06047 4.41187 3.5285 4.41187H17.6461C18.1142 4.41187 18.563 4.59779 18.894 4.92874C19.2249 5.25968 19.4109 5.70854 19.4109 6.17657V15.0001C19.4109 15.4681 19.2249 15.917 18.894 16.2479C18.563 16.5789 18.1142 16.7648 17.6461 16.7648H3.5285C3.06047 16.7648 2.61161 16.5789 2.28066 16.2479C1.94972 15.917 1.76379 15.4681 1.76379 15.0001V6.17657Z" stroke="#FFD61B" stroke-width="1.76471" stroke-linecap="round" stroke-linejoin="round"/>
<path d="M10.5874 13.2353C12.0493 13.2353 13.2344 12.0502 13.2344 10.5882C13.2344 9.12629 12.0493 7.94116 10.5874 7.94116C9.12544 7.94116 7.94031 9.12629 7.94031 10.5882C7.94031 12.0502 9.12544 13.2353 10.5874 13.2353Z" stroke="#FFD61B" stroke-width="1.76471" stroke-linecap="round" stroke-linejoin="round"/>
<path d="M15.8814 16.7648C15.8814 15.8287 16.2533 14.931 16.9152 14.2691C17.5771 13.6072 18.4748 13.2354 19.4109 13.2354M1.76379 7.94128C2.69985 7.94128 3.59757 7.56943 4.25947 6.90754C4.92136 6.24564 5.29321 5.34792 5.29321 4.41187L1.76379 7.94128Z" stroke="#FFD61B" stroke-width="1.76471" stroke-linecap="round" stroke-linejoin="round"/>
</svg>
