<svg width="37" height="36" viewBox="0 0 37 36" fill="none" xmlns="http://www.w3.org/2000/svg">
<path fill-rule="evenodd" clip-rule="evenodd" d="M11.6931 1.56724C13.4175 1.48786 13.9674 1.47021 18.3602 1.47021C22.753 1.47021 23.3028 1.48933 25.0258 1.56724C26.7488 1.64516 27.9249 1.92008 28.954 2.31849C30.0316 2.72572 31.0093 3.36229 31.8179 4.18557C32.6411 4.99268 33.2762 5.96885 33.682 7.04794C34.0819 8.07704 34.3553 9.25315 34.4347 10.9732C34.5141 12.7006 34.5317 13.2505 34.5317 17.6418C34.5317 22.0346 34.5126 22.5844 34.4347 24.3089C34.3568 26.0289 34.0819 27.2051 33.682 28.2342C33.2762 29.3134 32.6401 30.2912 31.8179 31.0995C31.0093 31.9227 30.0316 32.5578 28.954 32.9636C27.9249 33.3635 26.7488 33.6369 25.0287 33.7163C23.3028 33.7957 22.753 33.8134 18.3602 33.8134C13.9674 33.8134 13.4175 33.7942 11.6931 33.7163C9.973 33.6384 8.79689 33.3635 7.76779 32.9636C6.68859 32.5578 5.7108 31.9216 4.90248 31.0995C4.07976 30.2919 3.44309 29.3145 3.03687 28.2356C2.63846 27.2065 2.36502 26.0304 2.28563 24.3103C2.20624 22.5829 2.1886 22.0331 2.1886 17.6418C2.1886 13.249 2.20771 12.6992 2.28563 10.9762C2.36355 9.25315 2.63846 8.07704 3.03687 7.04794C3.44369 5.96897 4.08085 4.99167 4.90395 4.1841C5.71112 3.36155 6.68793 2.7249 7.76632 2.31849C8.79542 1.92008 9.97153 1.64663 11.6916 1.56724H11.6931ZM24.8949 4.47813C23.1896 4.40021 22.678 4.38404 18.3602 4.38404C14.0424 4.38404 13.5307 4.40021 11.8254 4.47813C10.2479 4.55016 9.3923 4.81332 8.82188 5.03531C8.0677 5.32934 7.52816 5.67776 6.96215 6.24377C6.42562 6.76574 6.0127 7.40118 5.75369 8.1035C5.5317 8.67391 5.26855 9.52954 5.19651 11.107C5.11859 12.8124 5.10242 13.324 5.10242 17.6418C5.10242 21.9596 5.11859 22.4712 5.19651 24.1766C5.26855 25.754 5.5317 26.6097 5.75369 27.1801C6.01244 27.8813 6.42555 28.5179 6.96215 29.0398C7.48405 29.5764 8.12062 29.9895 8.82188 30.2483C9.3923 30.4702 10.2479 30.7334 11.8254 30.8054C13.5307 30.8834 14.0409 30.8995 18.3602 30.8995C22.6794 30.8995 23.1896 30.8834 24.8949 30.8054C26.4724 30.7334 27.328 30.4702 27.8985 30.2483C28.6526 29.9542 29.1922 29.6058 29.7582 29.0398C30.2948 28.5179 30.7079 27.8813 30.9666 27.1801C31.1886 26.6097 31.4518 25.754 31.5238 24.1766C31.6017 22.4712 31.6179 21.9596 31.6179 17.6418C31.6179 13.324 31.6017 12.8124 31.5238 11.107C31.4518 9.52954 31.1886 8.67391 30.9666 8.1035C30.6726 7.34931 30.3242 6.80977 29.7582 6.24377C29.2362 5.70727 28.6007 5.29437 27.8985 5.03531C27.328 4.81332 26.4724 4.55016 24.8949 4.47813ZM16.2946 22.627C17.4482 23.1072 18.7327 23.172 19.9287 22.8104C21.1247 22.4487 22.1581 21.6831 22.8523 20.6442C23.5466 19.6053 23.8586 18.3576 23.7351 17.1142C23.6116 15.8708 23.0602 14.7088 22.1752 13.8268C21.611 13.2629 20.9288 12.8312 20.1778 12.5627C19.4267 12.2941 18.6254 12.1954 17.8316 12.2737C17.0379 12.352 16.2713 12.6053 15.5872 13.0154C14.9031 13.4255 14.3184 13.9822 13.8752 14.6454C13.432 15.3086 13.1414 16.0618 13.0243 16.8508C12.9072 17.6398 12.9664 18.4449 13.1978 19.2082C13.4292 19.9716 13.827 20.6741 14.3624 21.2653C14.8979 21.8564 15.5578 22.3215 16.2946 22.627ZM12.4825 11.7642C13.2544 10.9923 14.1707 10.38 15.1792 9.96229C16.1877 9.54456 17.2686 9.32956 18.3602 9.32956C19.4517 9.32956 20.5326 9.54456 21.5411 9.96229C22.5496 10.38 23.4659 10.9923 24.2378 11.7642C25.0097 12.536 25.6219 13.4523 26.0397 14.4608C26.4574 15.4693 26.6724 16.5502 26.6724 17.6418C26.6724 18.7334 26.4574 19.8142 26.0397 20.8227C25.6219 21.8312 25.0097 22.7476 24.2378 23.5194C22.679 25.0783 20.5647 25.954 18.3602 25.954C16.1556 25.954 14.0414 25.0783 12.4825 23.5194C10.9237 21.9606 10.0479 19.8463 10.0479 17.6418C10.0479 15.4372 10.9237 13.323 12.4825 11.7642ZM28.5159 10.5675C28.7072 10.387 28.8603 10.17 28.9662 9.92938C29.0721 9.6887 29.1287 9.42923 29.1325 9.16631C29.1363 8.90339 29.0874 8.64237 28.9885 8.39872C28.8897 8.15506 28.7429 7.93371 28.557 7.74778C28.3711 7.56185 28.1497 7.41511 27.9061 7.31626C27.6624 7.21741 27.4014 7.16845 27.1385 7.17228C26.8756 7.17612 26.6161 7.23266 26.3754 7.33858C26.1347 7.44449 25.9178 7.59761 25.7373 7.78889C25.3864 8.16088 25.1943 8.65498 25.2018 9.16631C25.2092 9.67764 25.4157 10.1659 25.7773 10.5275C26.1389 10.8891 26.6272 11.0956 27.1385 11.103C27.6498 11.1105 28.1439 10.9184 28.5159 10.5675Z" fill="#272727"/>
</svg>
