<svg width="36" height="37" viewBox="0 0 36 37" fill="none" xmlns="http://www.w3.org/2000/svg">
<path d="M24.8231 21.4347C24.4475 21.2417 22.5765 20.3252 22.2285 20.2011C21.8805 20.0702 21.6255 20.0082 21.374 20.3941C21.119 20.7766 20.3954 21.6276 20.168 21.8861C19.9475 22.141 19.7235 22.172 19.3479 21.9825C17.1151 20.8661 15.6508 19.991 14.1795 17.4653C13.7901 16.7934 14.5688 16.8416 15.2958 15.391C15.4199 15.136 15.3579 14.919 15.2614 14.726C15.1649 14.5331 14.4069 12.6655 14.0899 11.904C13.7832 11.1632 13.4662 11.2666 13.2354 11.2528C13.0148 11.239 12.7633 11.239 12.5083 11.239C12.2533 11.239 11.8433 11.3355 11.4953 11.7111C11.1473 12.0935 10.1653 13.0135 10.1653 14.8811C10.1653 16.7486 11.5263 18.5576 11.7124 18.8125C11.9053 19.0675 14.3896 22.8991 18.204 24.5495C20.6159 25.5901 21.56 25.6797 22.766 25.5005C23.4999 25.3903 25.0126 24.584 25.3261 23.6916C25.6397 22.8026 25.6397 22.0411 25.5466 21.8826C25.4536 21.7138 25.1986 21.6173 24.8231 21.4347Z" fill="#272727"/>
<path d="M32.1188 12.4243C31.3401 10.574 30.2237 8.91322 28.8007 7.48673C27.3776 6.06367 25.7168 4.94384 23.863 4.16857C21.9679 3.37262 19.9557 2.96948 17.8814 2.96948H17.8125C15.7244 2.97982 13.7018 3.3933 11.7998 4.20647C9.9633 4.99208 8.31628 6.10847 6.90701 7.53152C5.49774 8.95457 4.39169 10.6085 3.62675 12.4519C2.83426 14.3608 2.43456 16.3903 2.4449 18.4783C2.45523 20.8696 3.02721 23.2437 4.09881 25.3662V30.6036C4.09881 31.4788 4.80861 32.1886 5.68381 32.1886H10.9246C13.0472 33.2602 15.4212 33.8321 17.8125 33.8425H17.8848C19.9488 33.8425 21.9507 33.4428 23.8355 32.6606C25.6789 31.8922 27.3363 30.7896 28.7559 29.3804C30.1789 27.9711 31.2987 26.3241 32.0809 24.4875C32.8941 22.5855 33.3076 20.563 33.3179 18.4749C33.3282 16.3765 32.9217 14.3401 32.1188 12.4243ZM26.9124 27.5163C24.497 29.9075 21.2926 31.2238 17.8814 31.2238H17.8228C15.7451 31.2134 13.6812 30.6966 11.8584 29.7249L11.569 29.5699H6.7175V24.7184L6.56245 24.429C5.59077 22.6062 5.07393 20.5423 5.06359 18.4646C5.04981 15.0292 6.3626 11.8041 8.77111 9.37494C11.1762 6.94576 14.391 5.60196 17.8263 5.58817H17.8848C19.6077 5.58817 21.2788 5.9224 22.8535 6.58397C24.3902 7.2283 25.7685 8.15518 26.9538 9.34048C28.1356 10.5223 29.066 11.904 29.7103 13.4408C30.3788 15.0327 30.713 16.7211 30.7061 18.4646C30.6854 21.8964 29.3382 25.1112 26.9124 27.5163Z" fill="#272727"/>
</svg>
