<svg width="22" height="22" viewBox="0 0 22 22" fill="none" xmlns="http://www.w3.org/2000/svg">
<path d="M10.5864 20.6764L6.49939 18.4972C5.33424 17.8773 4.35988 16.9519 3.68088 15.8202C3.00188 14.6885 2.64387 13.3932 2.64527 12.0734V3.4705C2.64562 3.11959 2.78517 2.78315 3.03331 2.53501C3.28144 2.28688 3.61788 2.14732 3.9688 2.14697H17.2041C17.555 2.14732 17.8914 2.28688 18.1396 2.53501C18.3877 2.78315 18.5273 3.11959 18.5276 3.4705V12.0734C18.529 13.3932 18.171 14.6885 17.492 15.8202C16.813 16.9519 15.8387 17.8773 14.6735 18.4972L10.5864 20.6764ZM3.9688 3.4705V12.0734C3.9677 13.1533 4.2607 14.2131 4.81636 15.139C5.37202 16.065 6.16935 16.8221 7.12277 17.3292L10.5864 19.1762L14.0501 17.3298C15.0036 16.8227 15.801 16.0655 16.3567 15.1394C16.9124 14.2133 17.2053 13.1534 17.2041 12.0734V3.4705H3.9688Z" fill="#FFD61B"/>
<path d="M10.5864 17.551V4.79419H15.8805V11.9446C15.8805 12.7834 15.6527 13.6064 15.2215 14.3259C14.7902 15.0453 14.1718 15.6342 13.432 16.0296L10.5864 17.551Z" fill="#FFD61B"/>
</svg>
