<svg width="24" height="24" viewBox="0 0 24 24" fill="none" xmlns="http://www.w3.org/2000/svg">
<g clip-path="url(#clip0_2_2363)">
<path d="M9.05638 19.185L2.37201 12.5381C2.33346 12.4998 2.30286 12.4542 2.28199 12.404C2.26111 12.3538 2.25037 12.3 2.25037 12.2456C2.25037 12.1913 2.26111 12.1374 2.28199 12.0872C2.30286 12.037 2.33346 11.9915 2.37201 11.9531L4.05951 10.2637C4.22076 10.1025 4.48138 10.1025 4.64263 10.2637L9.04325 14.6381C9.2045 14.7994 9.467 14.7975 9.62825 14.6362L19.352 4.81875C19.5133 4.65562 19.7758 4.65562 19.9389 4.81687L21.6283 6.50625C21.7895 6.6675 21.7895 6.92812 21.6301 7.08937L11.0364 17.7787L11.0383 17.7806L9.64138 19.185C9.48013 19.3462 9.21763 19.3462 9.05638 19.185Z" fill="white" stroke="white" stroke-width="1.125" stroke-miterlimit="10"/>
</g>
<defs>
<clipPath id="clip0_2_2363">
<rect width="24" height="24" fill="white"/>
</clipPath>
</defs>
</svg>
