<svg width="321" height="304" viewBox="0 0 321 304" fill="none" xmlns="http://www.w3.org/2000/svg">
<path d="M108.342 141.465H107.437V236.394H108.342V141.465Z" fill="#9EB9FF"/>
<path d="M45.0832 141.465H44.1788V236.394H45.0832V141.465Z" fill="#9EB9FF"/>
<path d="M174.441 141.464H173.535V236.394H174.441V141.464Z" fill="#9EB9FF"/>
<path d="M238.803 141.465H237.898V236.394H238.803V141.465Z" fill="#9EB9FF"/>
<path d="M60.6865 129.767H45.2705V132.242H60.6865V129.767Z" fill="#9EB9FF"/>
<path d="M67.1368 134.341H45.2705V136.816H67.1368V134.341Z" fill="#9EB9FF"/>
<path d="M127.035 129.767H108.937V132.242H127.035V129.767Z" fill="#9EB9FF"/>
<path d="M120.51 134.341H108.937V136.816H120.51V134.341Z" fill="#9EB9FF"/>
<path d="M185.656 129.767H174.442V132.242H185.656V129.767Z" fill="#9EB9FF"/>
<path d="M187.512 134.341H174.442V136.816H187.512V134.341Z" fill="#9EB9FF"/>
<path d="M255.138 129.767H238.802V132.242H255.138V129.767Z" fill="#9EB9FF"/>
<path d="M251.874 134.341H238.802V136.816H251.874V134.341Z" fill="#9EB9FF"/>
<path d="M184.681 242.02H174.442V245.319H184.681V242.02Z" fill="#B8B8B8"/>
<path d="M249.041 242.02H238.802V245.319H249.041V242.02Z" fill="#B8B8B8"/>
<g opacity="0.43">
<path d="M280.403 208.19C260.329 208.192 242.879 199.515 224.688 190.471C202.229 179.307 179.006 167.763 148.064 170.925C128.306 172.944 115.904 180.987 104.963 188.083C95.0551 194.508 85.6888 200.159 73.0041 200.642C52.5018 201.422 45.3908 192.68 45.2714 192.147V186.538C45.2975 186.634 49.7738 196.445 72.9828 196.329C84.4131 196.272 92.8489 190.8 102.616 184.465C113.968 177.103 126.832 168.759 147.627 166.633C179.81 163.346 203.603 175.172 226.611 186.61C250.687 198.577 273.66 209.8 302.709 200.063V204.675C294.426 207.453 287.804 208.19 280.403 208.19Z" fill="url(#paint0_linear_2_1821)"/>
</g>
<path d="M159.909 207.116C145.092 207.117 133.339 197.154 121.834 187.404C113.11 180.011 104.059 172.452 93.6121 168.723C61.7269 157.342 45.4147 178.123 45.2692 178.304V171.984C45.4409 171.768 48.352 167.992 56.7698 164.385C64.4336 161.102 77.2933 158.483 95.03 164.65C106.267 168.557 115.599 176.467 124.626 184.115C142.933 199.631 158.745 213.03 186.204 192.042C207.001 176.145 226.607 160.995 245.897 155.461C264.764 150.048 284.434 154.01 302.846 172.416L302.71 178.156C263.6 138.888 230.298 163.766 188.826 195.467C177.839 203.864 168.373 207.114 159.909 207.116Z" fill="url(#paint1_linear_2_1821)"/>
<path d="M191.411 118.787L190.758 118.02L201.6 108.788H208.184L223.123 96.0659L232.466 104.023H239.356L242.84 106.988L253.658 97.7744H259.15L281.919 78.3833L282.574 79.15L259.522 98.7814H254.03L242.84 108.311L238.985 105.03H232.095L223.123 97.3885L208.554 109.795H201.969L191.411 118.787Z" fill="url(#paint2_linear_2_1821)"/>
<path d="M192.977 106.034H189.23V105.027H192.56L198.186 99.4027L202.276 103.493L212.048 93.7232L215.054 96.7281L224.964 86.8241L230.9 92.7587H237.67L248.119 82.3152H257.13L263.791 75.6564H271.946L280.037 67.5671L280.748 68.2799L272.363 76.6635H264.208L257.547 83.3223H248.536L238.087 93.7658H230.483L224.964 88.2481L215.054 98.1521L212.048 95.1488L202.276 104.917L198.186 100.827L192.977 106.034Z" fill="url(#paint3_linear_2_1821)"/>
<path d="M293.039 108.324C293.032 108.303 293.027 108.281 293.021 108.26C283.384 74.6671 259.335 45.9525 226.107 31.1782H226.104C220.412 28.6229 214.438 26.5058 208.238 24.8366C192.724 20.6628 177.092 19.7179 162.067 21.5767C162.055 21.58 162.039 21.58 162.027 21.5832L162.006 21.5767C151.896 22.8421 142.055 25.3663 132.699 29.0644C132.681 29.0709 132.663 29.0791 132.643 29.0856C98.2785 42.5961 70.5605 71.6737 60.2308 110.049C42.8916 174.456 81.0553 240.699 145.465 258.026C178.541 266.923 212.099 261.195 239.276 244.804L244.349 251.847L268.258 234.636L262.486 226.624C276.888 212.187 287.821 193.904 293.503 172.8C299.412 150.85 298.877 128.681 293.039 108.324ZM204.6 218.636C161.897 233.933 114.869 211.732 99.5656 169.044C84.5454 127.151 105.658 81.0921 146.816 64.9348C147.596 64.6291 148.381 64.3332 149.176 64.0487C155.003 61.961 160.909 60.5714 166.803 59.8373C181.916 57.954 196.955 60.3752 210.382 66.3702C230.106 75.1772 246.348 91.704 254.211 113.639C254.829 115.365 255.388 117.098 255.886 118.838C267.684 160.079 245.577 203.955 204.6 218.636Z" fill="url(#paint4_linear_2_1821)"/>
<path d="M316.828 101.479L293.018 108.261L255.885 118.84C255.386 117.1 254.827 115.369 254.21 113.641C246.347 91.706 230.105 75.1792 210.381 66.3722L226.103 31.177H226.106L227.76 27.4724L236.209 8.55542C276.258 26.3639 305.235 60.9837 316.828 101.479Z" fill="#7459F8"/>
<path d="M227.76 27.4724L226.106 31.177L210.381 66.3723C196.954 60.3773 181.917 57.956 166.802 59.8394L162.066 21.5755L161.57 17.5636C177.104 15.6361 193.263 16.6137 209.303 20.9281C215.706 22.648 221.882 24.8354 227.76 27.4724Z" fill="#AA5BFC"/>
<path d="M166.801 59.8392C160.907 60.5732 155.002 61.9628 149.174 64.0506C148.379 64.335 147.594 64.6309 146.814 64.9366L132.697 29.0629L128.423 18.2058C138.697 14.1383 149.505 11.3639 160.608 9.97595L160.632 9.98249L161.571 17.5633L162.067 21.5753L166.801 59.8392Z" fill="#785DFF"/>
<path d="M321 300.005H273.39L240.306 254.074L255.822 242.904L271.658 231.508L279.544 242.458L321 300.005Z" fill="url(#paint5_linear_2_1821)"/>
<mask id="mask0_2_1821" style="mask-type:alpha" maskUnits="userSpaceOnUse" x="288" y="0" width="15" height="6">
<path d="M288.658 5.34108H302.513V0H288.658V5.34108Z" fill="url(#paint6_linear_2_1821)"/>
</mask>
<g mask="url(#mask0_2_1821)">
</g>
<path d="M145.693 255.417H195.413L179.742 303.523L181.209 304L197.536 253.877H144.573L128.401 303.523L129.867 304L145.693 255.417Z" fill="#BFBFBF"/>
<path d="M162.617 303.522L146.946 255.417H196.666L212.492 304L213.958 303.522L197.785 253.877H144.823L161.15 304L162.617 303.522Z" fill="#BFBFBF"/>
<path d="M201.921 269.024H141.065V270.564H201.921V269.024Z" fill="#BFBFBF"/>
<path d="M207.607 285.751H134.798V287.292H207.607V285.751Z" fill="#BFBFBF"/>
<path d="M170.612 145.624C170.612 145.624 171.852 143.457 169.886 137.645C167.985 132.024 161.404 132.534 159.313 136.134C157.221 139.734 157.927 141.97 161.007 146.036C164.085 150.102 169.333 147.483 170.612 145.624Z" fill="#EEA886"/>
<path d="M155.329 245.601C155.329 245.601 155.003 247.988 154.962 248.346C154.921 248.704 151.34 248.135 151.34 248.135L151.05 245.293C151.049 245.293 154.881 245.264 155.329 245.601Z" fill="#EEA886"/>
<path d="M154.999 248.043C154.999 248.043 156.134 249.48 157.232 250.108C158.329 250.734 160.054 250.983 160.704 251.632C161.173 252.099 162.41 254.117 157.852 254.076C153.293 254.035 151.095 254.36 150.606 253.587C150.117 252.814 151.313 247.881 151.313 247.881C151.313 247.881 152.428 248.195 154.999 248.043Z" fill="#152B3D"/>
<path d="M180.129 245.601C180.129 245.601 179.804 247.988 179.763 248.346C179.722 248.704 176.141 248.135 176.141 248.135L175.851 245.293C175.849 245.293 179.681 245.264 180.129 245.601Z" fill="#EEA886"/>
<path d="M179.803 248.043C179.803 248.043 180.938 249.48 182.035 250.108C183.132 250.734 187.172 251.249 187.821 251.898C188.291 252.367 189.069 254.252 182.655 254.076C178.097 253.95 175.899 254.36 175.41 253.587C174.921 252.814 176.116 247.881 176.116 247.881C176.116 247.881 177.533 248.133 179.803 248.043Z" fill="#152B3D"/>
<path d="M156.531 186.179C156.531 186.179 154.694 191.885 154.936 196.801C155.178 201.717 153.986 207.097 153.5 212.232C152.957 217.957 150.735 231.512 150.655 234.574C150.574 237.636 151 247.416 151 247.416L155.448 247.524C155.448 247.524 159.184 223.828 160.152 221.41C161.12 218.992 165.917 201.756 166.079 199.82C166.239 197.886 156.531 186.179 156.531 186.179Z" fill="#898EFE"/>
<path d="M174.973 185.585C174.973 185.585 177.674 200.668 177.996 203.678C178.318 206.687 178.534 218.239 178.694 220.119C178.856 221.999 179.769 244.729 180.629 247.523H175.668C175.668 247.523 170.576 230.999 170.576 223.182C170.576 215.364 167.203 206.186 165.026 201.028C162.85 195.87 157.866 195.747 156.529 186.176C156.53 186.178 173.161 182.549 174.973 185.585Z" fill="#898EFE"/>
<path d="M168.813 147.158C168.813 147.158 168.254 148.787 168.813 149.947C169.372 151.108 161.664 150.412 161.664 150.412C161.664 150.412 162.013 148.012 161.005 146.037C159.999 144.064 168.813 147.158 168.813 147.158Z" fill="#EEA886"/>
<path d="M156.173 187.421C156.173 187.421 158.946 190.267 175.222 186.978L174.973 185.585L156.469 186.282L156.173 187.421Z" fill="#5625E0"/>
<path d="M169.984 150.325C169.984 150.325 172.831 150.616 173.644 150.769C174.457 150.925 179.932 149.79 181.056 149.674C182.179 149.558 186.968 146.277 187.123 145.891C187.279 145.503 190.038 138.521 190.192 137.012C190.347 135.501 192.879 136.281 192.661 137.323C192.256 139.268 191.734 143.993 191.448 145.363C191.139 146.841 190.311 150.191 189.846 150.603C189.382 151.015 185.069 154.294 180.848 155.687C176.627 157.082 173.449 159.133 173.449 159.133H152.641C152.641 159.133 144.549 147.57 144.374 145.827C144.199 144.084 150.026 132.505 151.189 131.053C152.35 129.601 154.031 131.527 154.031 131.527C154.031 131.527 150.549 141.738 150.085 143.19C149.62 144.642 154.134 151.021 155.374 151.041C156.614 151.06 159.796 150.653 161.209 150.596C162.622 150.537 164.114 149.919 164.114 149.919L169.984 150.325Z" fill="#EEA886"/>
<path d="M178.945 158.049C178.945 158.049 176.398 159.741 176.166 162.646C175.934 165.55 175.005 170.137 174.539 171.705C174.074 173.273 174.946 184.655 175.062 185.469C175.178 186.281 158.962 188.214 156.472 186.281C156.472 186.281 155.775 175.655 155.484 172.633C155.193 169.614 153.799 162.296 153.335 161.309C152.87 160.321 147.234 152.42 147.002 151.379C147.002 151.379 149.917 146.732 152.008 146.675C152.008 146.675 155.33 150.566 156.413 150.741C157.495 150.916 164.134 149.7 164.135 149.69C164.135 149.69 164.86 150.676 168.711 149.515C168.711 149.515 173.299 150.032 174.045 150.128C174.949 150.244 181.229 149.34 181.229 149.34C181.229 149.34 183.75 153.594 183.308 155.742L178.945 158.049Z" fill="#5D5AFA"/>
<path d="M190.041 137.92C190.041 137.92 190.611 135.229 189.925 134.455C189.536 134.016 188.599 132.852 188.512 132.68C188.427 132.508 187.421 131.931 187.421 131.653C187.421 131.375 188.406 131.032 189.261 131.825C190.117 132.616 190.651 132.788 190.995 132.701C191.337 132.616 191.829 129.77 191.872 129.065C191.914 128.359 192.187 126.499 192.629 126.626C193.07 126.754 193.049 127.568 193.049 127.568C193.049 127.568 193.563 126.155 193.904 126.435C194.246 126.713 194.204 127.398 194.204 127.398C194.204 127.398 194.846 126.606 195.017 127.184C195.188 127.761 195.017 128.274 195.017 128.274C195.017 128.274 195.681 127.911 195.723 128.809C195.766 129.708 195.53 132.338 195.059 133.28C194.588 134.222 192.827 136.684 192.616 137.645C192.406 138.606 190.041 137.92 190.041 137.92Z" fill="#EEA886"/>
<path d="M153.463 133.193C153.463 133.193 155.4 129.939 156.057 129.65C156.716 129.359 157.645 129.196 158.458 128.614C159.271 128.033 160.345 127.549 160.288 127.355C160.231 127.162 159.271 127.239 158.245 127.683C157.218 128.128 156.769 127.914 156.672 127.682C156.576 127.45 157.22 125.81 157.529 125.422C157.838 125.035 160.046 122.815 159.678 122.486C159.31 122.157 157.877 123.377 157.645 123.629C157.645 123.629 158.788 121.229 158.342 121.113C157.897 120.997 157.065 121.848 157.065 121.848C157.065 121.848 157.161 119.797 154.953 123.127C154.953 123.127 155.418 122.023 154.741 122.391C154.063 122.759 153.404 124.83 153.192 125.875C152.979 126.92 152.013 130.25 151.188 131.054C150.364 131.857 153.463 133.193 153.463 133.193Z" fill="#EEA886"/>
<path d="M161.007 146.038C161.007 146.038 162.027 146.128 164.196 145.379C166.365 144.63 166.527 140.839 166.996 141.289C167.953 142.206 168.857 141.573 169.219 141.03C169.219 141.03 168.16 139.636 168.651 138.966C169.142 138.294 169.94 137.805 169.94 137.805C169.94 137.805 168.414 130.454 161.471 133.803C153.338 137.726 161.007 146.038 161.007 146.038Z" fill="#353A3D"/>
<path d="M168.815 149.947L168.57 148.884C168.57 148.884 164.139 148.794 161.72 149.144L161.465 150.414C161.467 150.416 164.563 151.818 168.815 149.947Z" fill="#5625E0"/>
<path d="M167.72 140.359C167.318 139.69 165.83 139.239 165.655 141.134C165.519 142.602 168.314 144.206 168.34 142.837C168.366 141.469 167.988 140.803 167.72 140.359Z" fill="#EEA886"/>
<path d="M190.148 137.308C190.148 137.308 191.748 137.347 192.523 138.047C192.523 138.047 192.574 138.492 192.394 138.842C192.394 138.842 191.009 138.196 189.946 138.075C189.946 138.077 189.962 137.495 190.148 137.308Z" fill="#E55353"/>
<path d="M192.03 137.707C192.177 138.056 192.014 138.459 191.664 138.607C191.314 138.755 190.912 138.591 190.763 138.241C190.615 137.891 190.779 137.489 191.129 137.34C191.479 137.193 191.881 137.357 192.03 137.707Z" fill="#353A3D"/>
<defs>
<linearGradient id="paint0_linear_2_1821" x1="45.2691" y1="187.134" x2="302.707" y2="187.134" gradientUnits="userSpaceOnUse">
<stop stop-color="#B8AAFD"/>
<stop offset="1" stop-color="#EDDBFF"/>
</linearGradient>
<linearGradient id="paint1_linear_2_1821" x1="45.2702" y1="180.17" x2="302.844" y2="180.17" gradientUnits="userSpaceOnUse">
<stop stop-color="#DADCFF"/>
<stop offset="0.930208" stop-color="#DEE3F3"/>
</linearGradient>
<linearGradient id="paint2_linear_2_1821" x1="190.758" y1="98.5855" x2="282.573" y2="98.5855" gradientUnits="userSpaceOnUse">
<stop stop-color="#8FA8FF"/>
<stop offset="1" stop-color="#BFEBFE"/>
</linearGradient>
<linearGradient id="paint3_linear_2_1821" x1="189.23" y1="86.8012" x2="280.749" y2="86.8012" gradientUnits="userSpaceOnUse">
<stop stop-color="#8FA8FF"/>
<stop offset="1" stop-color="#BFEBFE"/>
</linearGradient>
<linearGradient id="paint4_linear_2_1821" x1="206.246" y1="57.7491" x2="154.532" y2="205.141" gradientUnits="userSpaceOnUse">
<stop stop-color="#E9EEFF"/>
<stop offset="1" stop-color="#D4DDFF"/>
</linearGradient>
<linearGradient id="paint5_linear_2_1821" x1="232.464" y1="208.844" x2="326.274" y2="341.702" gradientUnits="userSpaceOnUse">
<stop stop-color="#D4DEFF"/>
<stop offset="1" stop-color="#E7EDFF"/>
</linearGradient>
<linearGradient id="paint6_linear_2_1821" x1="303.214" y1="-25.8536" x2="287.285" y2="33.7527" gradientUnits="userSpaceOnUse">
<stop stop-color="white"/>
<stop offset="1"/>
</linearGradient>
</defs>
</svg>
