<svg width="54" height="54" viewBox="0 0 54 54" fill="none" xmlns="http://www.w3.org/2000/svg">
<path d="M36.794 25.5453C36.9989 25.3332 37.1123 25.049 37.1098 24.754C37.1072 24.459 36.9889 24.1769 36.7803 23.9683C36.5717 23.7597 36.2896 23.6414 35.9946 23.6388C35.6996 23.6363 35.4154 23.7497 35.2033 23.9546L26.9986 32.1592L23.294 28.4546C23.0818 28.2497 22.7976 28.1363 22.5027 28.1388C22.2077 28.1414 21.9255 28.2597 21.717 28.4683C21.5084 28.6769 21.3901 28.959 21.3875 29.254C21.3849 29.549 21.4983 29.8332 21.7033 30.0453L26.9986 35.3407L36.794 25.5453Z" fill="#2B52DB"/>
<path fill-rule="evenodd" clip-rule="evenodd" d="M42.7483 16.8749V40.4999C42.7483 41.395 42.3927 42.2534 41.7598 42.8864C41.1268 43.5193 40.2684 43.8749 39.3733 43.8749H19.1233C18.2282 43.8749 17.3697 43.5193 16.7368 42.8864C16.1039 42.2534 15.7483 41.395 15.7483 40.4999V8.99988C15.7483 8.10477 16.1039 7.24633 16.7368 6.61339C17.3697 5.98046 18.2282 5.62488 19.1233 5.62488H31.4983L42.7483 16.8749ZM31.4983 17.9999C31.1999 17.9999 30.9138 17.8814 30.7028 17.6704C30.4918 17.4594 30.3733 17.1732 30.3733 16.8749V7.87488H19.1233C18.8249 7.87488 18.5388 7.9934 18.3278 8.20438C18.1168 8.41536 17.9983 8.70151 17.9983 8.99988V40.4999C17.9983 40.7982 18.1168 41.0844 18.3278 41.2954C18.5388 41.5064 18.8249 41.6249 19.1233 41.6249H39.3733C39.6717 41.6249 39.9578 41.5064 40.1688 41.2954C40.3798 41.0844 40.4983 40.7982 40.4983 40.4999V17.9999H31.4983ZM32.6233 9.93138L38.4418 15.7499H32.6233V9.93138Z" fill="#2B52DB"/>
<path d="M13.4989 12.3749V42.7499C13.4989 43.645 13.8545 44.5034 14.4874 45.1364C15.1204 45.7693 15.9788 46.1249 16.8739 46.1249H38.2489V48.3749H16.8739C15.3821 48.3749 13.9513 47.7822 12.8964 46.7273C11.8415 45.6725 11.2489 44.2417 11.2489 42.7499V12.3749H13.4989Z" fill="#2B52DB"/>
</svg>
