<svg width="22" height="22" viewBox="0 0 22 22" fill="none" xmlns="http://www.w3.org/2000/svg">
<path d="M18.0869 7.43806C18.0869 6.65637 17.6732 5.93306 16.9995 5.53673L11.7053 2.42255C11.015 2.01647 10.1588 2.01647 9.46849 2.42255L4.17437 5.53673C3.50061 5.93306 3.08691 6.65637 3.08691 7.43806V13.7383C3.08691 14.52 3.50061 15.2433 4.17437 15.6396L9.46849 18.7538C10.1588 19.1599 11.015 19.1599 11.7053 18.7538L16.9995 15.6396C17.6732 15.2433 18.0869 14.52 18.0869 13.7383V7.43806Z" stroke="#FFD61B" stroke-width="1.76471" stroke-linejoin="round"/>
<path d="M7.0575 11.4706V13.2353M10.5869 9.70587V13.2353V9.70587ZM14.1163 7.94116V13.2353V7.94116Z" stroke="#FFD61B" stroke-width="1.76471" stroke-linecap="round" stroke-linejoin="round"/>
</svg>
