<svg width="55" height="56" viewBox="0 0 55 56" fill="none" xmlns="http://www.w3.org/2000/svg">
<path d="M31.7553 47.5978L27.1441 53.1279L22.7088 47.7829L22.6231 47.6795L22.5222 47.5914L14.7059 40.7554C7.90384 33.8147 7.91793 22.5992 14.7482 15.6762L15.4661 14.9485C22.3105 8.01124 33.4074 8.01123 40.2518 14.9485C47.0962 21.8858 47.0962 33.1334 40.2518 40.0707L39.9351 40.3917L31.9371 47.4114L31.839 47.4974L31.7553 47.5978Z" stroke="#FFD61B" stroke-width="3.35366"/>
<rect x="3.65677" width="5.20668" height="5.20668" transform="matrix(0.702323 -0.711859 0.702323 0.711859 21.3015 30.2232)" fill="url(#paint0_diamond_2_3317)" stroke="#FFD61B" stroke-width="5.20668"/>
<mask id="path-3-inside-1_2_3317" fill="white">
<path d="M23.249 39.9826L27.1961 37.3908L18.0204 28.0905L15.4534 31.8195L23.249 39.9826Z"/>
</mask>
<path d="M23.249 39.9826L27.1961 37.3908L18.0204 28.0905L15.4534 31.8195L23.249 39.9826Z" fill="url(#paint1_linear_2_3317)"/>
<path d="M23.249 39.9826L57.2057 93.1087L14.0981 121.415L-21.6251 84.008L23.249 39.9826ZM27.1961 37.3908L71.3568 -7.3695L125.952 47.9668L61.1528 90.5168L27.1961 37.3908ZM18.0204 28.0905L-33.1973 -8.13099L9.46356 -70.103L62.1811 -16.6697L18.0204 28.0905ZM15.4534 31.8195L-29.4207 75.8449L-65.2082 38.3702L-35.7643 -4.402L15.4534 31.8195ZM-10.7078 -13.1435L-6.7607 -15.7353L61.1528 90.5168L57.2057 93.1087L-10.7078 -13.1435ZM-16.9647 82.151L-26.1403 72.8508L62.1811 -16.6697L71.3568 -7.3695L-16.9647 82.151ZM69.2381 64.3121L66.6711 68.041L-35.7643 -4.402L-33.1973 -8.13099L69.2381 64.3121ZM60.3275 -12.2058L68.1231 -4.04276L-21.6251 84.008L-29.4207 75.8449L60.3275 -12.2058Z" fill="#FFD61B" mask="url(#path-3-inside-1_2_3317)"/>
<mask id="path-5-inside-2_2_3317" fill="white">
<path d="M32.0223 39.9826L28.0752 37.3908L37.2508 28.0905L39.8178 31.8195L32.0223 39.9826Z"/>
</mask>
<path d="M32.0223 39.9826L28.0752 37.3908L37.2508 28.0905L39.8178 31.8195L32.0223 39.9826Z" fill="url(#paint2_linear_2_3317)"/>
<path d="M32.0223 39.9826L-1.93451 93.1087L41.1732 121.415L76.8963 84.0079L32.0223 39.9826ZM28.0752 37.3908L-16.0856 -7.36949L-70.6807 47.9668L-5.88159 90.5168L28.0752 37.3908ZM37.2508 28.0905L88.4685 -8.13098L45.8077 -70.103L-6.90989 -16.6697L37.2508 28.0905ZM39.8178 31.8195L84.6919 75.8449L120.479 38.3702L91.0355 -4.40199L39.8178 31.8195ZM65.979 -13.1435L62.0319 -15.7353L-5.88159 90.5168L-1.93451 93.1087L65.979 -13.1435ZM72.2359 82.151L81.4116 72.8508L-6.90989 -16.6697L-16.0856 -7.36949L72.2359 82.151ZM-13.9669 64.3121L-11.3999 68.041L91.0355 -4.40199L88.4685 -8.13098L-13.9669 64.3121ZM-5.05625 -12.2058L-12.8518 -4.04275L76.8963 84.0079L84.6919 75.8449L-5.05625 -12.2058Z" fill="#FFD61B" mask="url(#path-5-inside-2_2_3317)"/>
<mask id="path-7-inside-3_2_3317" fill="white">
<path d="M23.249 15.2662L27.1961 17.858L18.0204 27.1582L15.4534 23.4293L23.249 15.2662Z"/>
</mask>
<path d="M23.249 15.2662L27.1961 17.858L18.0204 27.1582L15.4534 23.4293L23.249 15.2662Z" fill="url(#paint3_linear_2_3317)"/>
<path d="M23.249 15.2662L57.2057 -37.8599L14.0981 -66.1664L-21.6251 -28.7592L23.249 15.2662ZM27.1961 17.858L71.3568 62.6183L125.952 7.28199L61.1528 -35.2681L27.1961 17.858ZM18.0204 27.1582L-33.1973 63.3798L9.46356 125.352L62.1811 71.9185L18.0204 27.1582ZM15.4534 23.4293L-29.4207 -20.5961L-65.2082 16.8785L-35.7643 59.6508L15.4534 23.4293ZM-10.7078 68.3923L-6.76068 70.9841L61.1528 -35.2681L57.2057 -37.8599L-10.7078 68.3923ZM-16.9647 -26.9023L-26.1403 -17.602L62.1811 71.9185L71.3568 62.6183L-16.9647 -26.9023ZM69.2381 -9.06328L66.6711 -12.7923L-35.7643 59.6508L-33.1973 63.3798L69.2381 -9.06328ZM60.3275 67.4546L68.1231 59.2915L-21.6251 -28.7592L-29.4207 -20.5961L60.3275 67.4546Z" fill="#FFD61B" mask="url(#path-7-inside-3_2_3317)"/>
<mask id="path-9-inside-4_2_3317" fill="white">
<path d="M32.0223 15.2662L28.0752 17.858L37.2508 27.1582L39.8178 23.4293L32.0223 15.2662Z"/>
</mask>
<path d="M32.0223 15.2662L28.0752 17.858L37.2508 27.1582L39.8178 23.4293L32.0223 15.2662Z" fill="url(#paint4_linear_2_3317)"/>
<path d="M32.0223 15.2662L-1.93451 -37.8599L41.1732 -66.1664L76.8963 -28.7592L32.0223 15.2662ZM28.0752 17.858L-16.0856 62.6183L-70.6807 7.28199L-5.88158 -35.2681L28.0752 17.858ZM37.2508 27.1582L88.4685 63.3798L45.8077 125.352L-6.90989 71.9185L37.2508 27.1582ZM39.8178 23.4293L84.6919 -20.5961L120.479 16.8785L91.0355 59.6508L39.8178 23.4293ZM65.979 68.3923L62.0319 70.9841L-5.88158 -35.2681L-1.93451 -37.8599L65.979 68.3923ZM72.2359 -26.9023L81.4116 -17.602L-6.90989 71.9185L-16.0856 62.6183L72.2359 -26.9023ZM-13.9669 -9.06328L-11.3999 -12.7923L91.0355 59.6508L88.4685 63.3798L-13.9669 -9.06328ZM-5.05625 67.4546L-12.8518 59.2915L76.8963 -28.7592L84.6919 -20.5961L-5.05625 67.4546Z" fill="#FFD61B" mask="url(#path-9-inside-4_2_3317)"/>
<defs>
<radialGradient id="paint0_diamond_2_3317" cx="0" cy="0" r="1" gradientUnits="userSpaceOnUse" gradientTransform="translate(5.20668 5.20668) rotate(90) scale(5.20668)">
<stop stop-color="#A6A6A6"/>
<stop offset="1" stop-color="#A6A6A6"/>
</radialGradient>
<linearGradient id="paint1_linear_2_3317" x1="23.1783" y1="33.6121" x2="20.1727" y2="36.5775" gradientUnits="userSpaceOnUse">
<stop stop-color="#A6A6A6"/>
<stop offset="1" stop-color="#A6A6A6"/>
</linearGradient>
<linearGradient id="paint2_linear_2_3317" x1="32.0737" y1="33.0655" x2="34.8061" y2="35.7614" gradientUnits="userSpaceOnUse">
<stop stop-color="#A6A6A6"/>
<stop offset="1" stop-color="#A6A6A6"/>
</linearGradient>
<linearGradient id="paint3_linear_2_3317" x1="23.4479" y1="22.1344" x2="20.4423" y2="19.169" gradientUnits="userSpaceOnUse">
<stop stop-color="#A6A6A6"/>
<stop offset="1" stop-color="#A6A6A6"/>
</linearGradient>
<linearGradient id="paint4_linear_2_3317" x1="32.6129" y1="22.6809" x2="35.6186" y2="19.7155" gradientUnits="userSpaceOnUse">
<stop stop-color="#A7A7A7"/>
<stop offset="1" stop-color="#A6A6A6"/>
</linearGradient>
</defs>
</svg>
