<svg width="142" height="41" viewBox="0 0 142 41" fill="none" xmlns="http://www.w3.org/2000/svg">
<path d="M47.244 27.2612C47.0973 27.2612 46.9727 27.2099 46.87 27.1072C46.7673 27.0046 46.716 26.8799 46.716 26.7332V12.4112C46.716 12.2499 46.7673 12.1179 46.87 12.0152C46.9727 11.9126 47.0973 11.8612 47.244 11.8612H53.14C54.284 11.8612 55.2813 12.0446 56.132 12.4112C56.9827 12.7632 57.6427 13.3059 58.112 14.0392C58.5813 14.7579 58.816 15.6599 58.816 16.7452C58.816 17.8452 58.5813 18.7546 58.112 19.4732C57.6427 20.1772 56.9827 20.7052 56.132 21.0572C55.2813 21.4092 54.284 21.5852 53.14 21.5852H49.862V26.7332C49.862 26.8799 49.8107 27.0046 49.708 27.1072C49.62 27.2099 49.4953 27.2612 49.334 27.2612H47.244ZM49.818 19.1432H53.03C53.8807 19.1432 54.5333 18.9452 54.988 18.5492C55.4427 18.1386 55.67 17.5372 55.67 16.7452C55.67 16.0119 55.4573 15.4252 55.032 14.9852C54.6067 14.5306 53.9393 14.3032 53.03 14.3032H49.818V19.1432ZM66.3763 27.2612C66.1416 27.2612 65.9583 27.2026 65.8263 27.0852C65.6943 26.9679 65.5989 26.8212 65.5403 26.6452L60.8323 12.5212C60.8029 12.4479 60.7883 12.3819 60.7883 12.3232C60.7883 12.1912 60.8323 12.0812 60.9203 11.9932C61.0083 11.9052 61.1183 11.8612 61.2503 11.8612H63.1863C63.3916 11.8612 63.5456 11.9199 63.6483 12.0372C63.7656 12.1399 63.8389 12.2426 63.8683 12.3452L67.5863 23.6752L71.2823 12.3452C71.3263 12.2426 71.3996 12.1399 71.5023 12.0372C71.6196 11.9199 71.7809 11.8612 71.9863 11.8612H73.9223C74.0396 11.8612 74.1423 11.9052 74.2303 11.9932C74.3329 12.0812 74.3843 12.1912 74.3843 12.3232C74.3843 12.3819 74.3696 12.4479 74.3403 12.5212L69.6323 26.6452C69.5736 26.8212 69.4783 26.9679 69.3463 27.0852C69.2143 27.2026 69.0309 27.2612 68.7963 27.2612H66.3763ZM77.4825 27.2612C77.3358 27.2612 77.2112 27.2099 77.1085 27.1072C77.0058 27.0046 76.9545 26.8726 76.9545 26.7112V25.1712C76.9545 24.9512 76.9985 24.7752 77.0865 24.6432C77.1745 24.5112 77.2405 24.4159 77.2845 24.3572L84.9405 14.4572H77.7025C77.5412 14.4572 77.4092 14.4059 77.3065 14.3032C77.2185 14.2006 77.1745 14.0759 77.1745 13.9292V12.4112C77.1745 12.2499 77.2185 12.1179 77.3065 12.0152C77.4092 11.9126 77.5412 11.8612 77.7025 11.8612H88.2185C88.3798 11.8612 88.5118 11.9126 88.6145 12.0152C88.7172 12.1179 88.7685 12.2499 88.7685 12.4112V13.9292C88.7685 14.1052 88.7392 14.2519 88.6805 14.3692C88.6218 14.4866 88.5558 14.5966 88.4825 14.6992L80.9805 24.6432H88.4605C88.6218 24.6432 88.7538 24.6946 88.8565 24.7972C88.9592 24.8999 89.0105 25.0319 89.0105 25.1932V26.7332C89.0105 26.8799 88.9592 27.0046 88.8565 27.1072C88.7538 27.2099 88.6218 27.2612 88.4605 27.2612H77.4825ZM98.4736 27.4812C97.1096 27.4812 95.9509 27.2466 94.9976 26.7772C94.0589 26.2932 93.3402 25.6112 92.8416 24.7312C92.3429 23.8366 92.0642 22.7659 92.0056 21.5192C91.9909 20.9179 91.9836 20.2726 91.9836 19.5832C91.9836 18.8939 91.9909 18.2339 92.0056 17.6032C92.0642 16.3712 92.3429 15.3079 92.8416 14.4132C93.3549 13.5186 94.0809 12.8366 95.0196 12.3672C95.9729 11.8832 97.1242 11.6412 98.4736 11.6412C99.4709 11.6412 100.366 11.7732 101.158 12.0372C101.95 12.3012 102.624 12.6679 103.182 13.1372C103.739 13.5919 104.172 14.1272 104.48 14.7432C104.788 15.3592 104.949 16.0266 104.964 16.7452C104.978 16.8772 104.934 16.9872 104.832 17.0752C104.744 17.1632 104.634 17.2072 104.502 17.2072H102.412C102.25 17.2072 102.118 17.1706 102.016 17.0972C101.913 17.0092 101.84 16.8699 101.796 16.6792C101.561 15.7112 101.158 15.0512 100.586 14.6992C100.014 14.3472 99.3022 14.1712 98.4516 14.1712C97.4689 14.1712 96.6842 14.4499 96.0976 15.0072C95.5109 15.5499 95.1956 16.4519 95.1516 17.7132C95.1076 18.9159 95.1076 20.1479 95.1516 21.4092C95.1956 22.6706 95.5109 23.5799 96.0976 24.1372C96.6842 24.6799 97.4689 24.9512 98.4516 24.9512C99.3022 24.9512 100.014 24.7752 100.586 24.4232C101.158 24.0566 101.561 23.3966 101.796 22.4432C101.84 22.2379 101.913 22.0986 102.016 22.0252C102.118 21.9519 102.25 21.9152 102.412 21.9152H104.502C104.634 21.9152 104.744 21.9592 104.832 22.0472C104.934 22.1352 104.978 22.2452 104.964 22.3772C104.949 23.0959 104.788 23.7632 104.48 24.3792C104.172 24.9952 103.739 25.5379 103.182 26.0072C102.624 26.4619 101.95 26.8212 101.158 27.0852C100.366 27.3492 99.4709 27.4812 98.4736 27.4812ZM114.591 27.4812C113.285 27.4812 112.163 27.2686 111.225 26.8432C110.286 26.4032 109.553 25.7359 109.025 24.8412C108.497 23.9319 108.211 22.8026 108.167 21.4532C108.152 20.8226 108.145 20.1992 108.145 19.5832C108.145 18.9672 108.152 18.3366 108.167 17.6912C108.211 16.3566 108.504 15.2419 109.047 14.3472C109.589 13.4526 110.33 12.7779 111.269 12.3232C112.222 11.8686 113.329 11.6412 114.591 11.6412C115.852 11.6412 116.959 11.8686 117.913 12.3232C118.866 12.7779 119.614 13.4526 120.157 14.3472C120.699 15.2419 120.993 16.3566 121.037 17.6912C121.066 18.3366 121.081 18.9672 121.081 19.5832C121.081 20.1992 121.066 20.8226 121.037 21.4532C120.993 22.8026 120.707 23.9319 120.179 24.8412C119.651 25.7359 118.91 26.4032 117.957 26.8432C117.018 27.2686 115.896 27.4812 114.591 27.4812ZM114.591 24.9512C115.544 24.9512 116.321 24.6726 116.923 24.1152C117.524 23.5432 117.847 22.6192 117.891 21.3432C117.92 20.6979 117.935 20.1039 117.935 19.5612C117.935 19.0039 117.92 18.4099 117.891 17.7792C117.861 16.9286 117.7 16.2392 117.407 15.7112C117.128 15.1686 116.747 14.7799 116.263 14.5452C115.779 14.2959 115.221 14.1712 114.591 14.1712C113.975 14.1712 113.425 14.2959 112.941 14.5452C112.457 14.7799 112.068 15.1686 111.775 15.7112C111.496 16.2392 111.342 16.9286 111.313 17.7792C111.298 18.4099 111.291 19.0039 111.291 19.5612C111.291 20.1039 111.298 20.6979 111.313 21.3432C111.357 22.6192 111.679 23.5432 112.281 24.1152C112.882 24.6726 113.652 24.9512 114.591 24.9512ZM125.62 27.2612C125.458 27.2612 125.326 27.2099 125.224 27.1072C125.121 27.0046 125.07 26.8799 125.07 26.7332V12.4112C125.07 12.2499 125.121 12.1179 125.224 12.0152C125.326 11.9126 125.458 11.8612 125.62 11.8612H127.358C127.563 11.8612 127.717 11.9199 127.82 12.0372C127.922 12.1399 127.988 12.2206 128.018 12.2792L132.264 20.1992L136.554 12.2792C136.583 12.2206 136.649 12.1399 136.752 12.0372C136.854 11.9199 137.008 11.8612 137.214 11.8612H138.93C139.091 11.8612 139.223 11.9126 139.326 12.0152C139.428 12.1179 139.48 12.2499 139.48 12.4112V26.7332C139.48 26.8799 139.428 27.0046 139.326 27.1072C139.223 27.2099 139.091 27.2612 138.93 27.2612H137.082C136.92 27.2612 136.788 27.2099 136.686 27.1072C136.598 27.0046 136.554 26.8799 136.554 26.7332V17.2072L133.474 23.0812C133.4 23.2132 133.305 23.3306 133.188 23.4332C133.07 23.5212 132.916 23.5652 132.726 23.5652H131.824C131.618 23.5652 131.457 23.5212 131.34 23.4332C131.237 23.3306 131.149 23.2132 131.076 23.0812L127.996 17.2072V26.7332C127.996 26.8799 127.944 27.0046 127.842 27.1072C127.739 27.2099 127.614 27.2612 127.468 27.2612H125.62Z" fill="#FDDB3F"/>
<path d="M23.6605 35.0617L20.2347 39.0713L16.94 35.1963L16.8753 35.1203L16.7993 35.0553L10.973 30.0824C5.90868 25.0388 5.9193 16.8892 11.0049 11.8586L11.5401 11.3292C16.6363 6.28808 24.8989 6.28807 29.9951 11.3292C35.0913 16.3703 35.0913 24.5436 29.9951 29.5847L29.7594 29.8178L23.7977 34.9244L23.7237 34.9878L23.6605 35.0617Z" stroke="#FFD61B" stroke-width="2.5"/>
<rect x="2.72595" width="3.8343" height="3.8343" transform="matrix(0.71094 -0.703253 0.71094 0.703253 15.8602 22.4541)" fill="url(#paint0_diamond_2_2483)" stroke="#FFD61B" stroke-width="3.8343"/>
<mask id="path-4-inside-1_2_2483" fill="white">
<path d="M17.3354 29.531L20.2778 27.6454L13.4378 20.8793L11.5242 23.5922L17.3354 29.531Z"/>
</mask>
<path d="M17.3354 29.531L20.2778 27.6454L13.4378 20.8793L11.5242 23.5922L17.3354 29.531Z" fill="url(#paint1_linear_2_2483)"/>
<path d="M17.3354 29.531L42.9592 68.6553L10.4301 89.5014L-16.5266 61.9531L17.3354 29.531ZM20.2778 27.6454L53.6015 -5.31798L94.799 35.434L45.9016 66.7697L20.2778 27.6454ZM13.4378 20.8793L-25.2111 -5.79575L6.98076 -51.4346L46.7615 -12.084L13.4378 20.8793ZM11.5242 23.5922L-22.3378 56.0144L-49.3431 28.4164L-27.1247 -3.08286L11.5242 23.5922ZM-8.28836 -9.59332L-5.346 -11.4789L45.9016 66.7697L42.9592 68.6553L-8.28836 -9.59332ZM-13.0459 60.6087L-19.886 53.8427L46.7615 -12.084L53.6015 -5.31798L-13.0459 60.6087ZM52.0867 47.5544L50.1731 50.2673L-27.1247 -3.08286L-25.2111 -5.79575L52.0867 47.5544ZM45.3862 -8.82993L51.1975 -2.89116L-16.5266 61.9531L-22.3378 56.0144L45.3862 -8.82993Z" fill="#FFD61B" mask="url(#path-4-inside-1_2_2483)"/>
<mask id="path-6-inside-2_2_2483" fill="white">
<path d="M23.8755 29.531L20.9331 27.6454L27.7732 20.8793L29.6867 23.5922L23.8755 29.531Z"/>
</mask>
<path d="M23.8755 29.531L20.9331 27.6454L27.7732 20.8793L29.6867 23.5922L23.8755 29.531Z" fill="url(#paint2_linear_2_2483)"/>
<path d="M23.8755 29.531L-1.7483 68.6553L30.7808 89.5014L57.7375 61.9531L23.8755 29.531ZM20.9331 27.6454L-12.3906 -5.31797L-53.5881 35.434L-4.69067 66.7697L20.9331 27.6454ZM27.7732 20.8793L66.4221 -5.79575L34.2302 -51.4346L-5.55055 -12.084L27.7732 20.8793ZM29.6867 23.5922L63.5488 56.0144L90.5541 28.4164L68.3357 -3.08285L29.6867 23.5922ZM49.4993 -9.59331L46.5569 -11.4789L-4.69067 66.7697L-1.7483 68.6553L49.4993 -9.59331ZM54.2569 60.6087L61.0969 53.8427L-5.55055 -12.084L-12.3906 -5.31797L54.2569 60.6087ZM-10.8757 47.5544L-8.96217 50.2673L68.3357 -3.08285L66.4221 -5.79575L-10.8757 47.5544ZM-4.17527 -8.82992L-9.98652 -2.89115L57.7375 61.9531L63.5488 56.0144L-4.17527 -8.82992Z" fill="#FFD61B" mask="url(#path-6-inside-2_2_2483)"/>
<mask id="path-8-inside-3_2_2483" fill="white">
<path d="M17.3354 11.5498L20.2778 13.4354L13.4378 20.2015L11.5242 17.4886L17.3354 11.5498Z"/>
</mask>
<path d="M17.3354 11.5498L20.2778 13.4354L13.4378 20.2015L11.5242 17.4886L17.3354 11.5498Z" fill="url(#paint3_linear_2_2483)"/>
<path d="M17.3354 11.5498L42.9592 -27.5745L10.4301 -48.4206L-16.5266 -20.8723L17.3354 11.5498ZM20.2778 13.4354L53.6015 46.3988L94.799 5.64679L45.9016 -25.6889L20.2778 13.4354ZM13.4378 20.2015L-25.2111 46.8766L6.98077 92.5154L46.7615 53.1649L13.4378 20.2015ZM11.5242 17.4886L-22.3378 -14.9335L-49.3431 12.6644L-27.1247 44.1637L11.5242 17.4886ZM-8.28835 50.6741L-5.34599 52.5597L45.9016 -25.6889L42.9592 -27.5745L-8.28835 50.6741ZM-13.0459 -19.5279L-19.8859 -12.7619L46.7615 53.1649L53.6015 46.3988L-13.0459 -19.5279ZM52.0867 -6.47358L50.1731 -9.18648L-27.1247 44.1637L-25.2111 46.8766L52.0867 -6.47358ZM45.3862 49.9107L51.1974 43.972L-16.5266 -20.8723L-22.3378 -14.9335L45.3862 49.9107Z" fill="#FFD61B" mask="url(#path-8-inside-3_2_2483)"/>
<mask id="path-10-inside-4_2_2483" fill="white">
<path d="M23.8755 11.5498L20.9331 13.4354L27.7732 20.2015L29.6867 17.4886L23.8755 11.5498Z"/>
</mask>
<path d="M23.8755 11.5498L20.9331 13.4354L27.7732 20.2015L29.6867 17.4886L23.8755 11.5498Z" fill="url(#paint4_linear_2_2483)"/>
<path d="M23.8755 11.5498L-1.7483 -27.5745L30.7808 -48.4206L57.7375 -20.8723L23.8755 11.5498ZM20.9331 13.4354L-12.3906 46.3988L-53.5881 5.64679L-4.69066 -25.6889L20.9331 13.4354ZM27.7732 20.2015L66.4221 46.8766L34.2302 92.5154L-5.55055 53.1649L27.7732 20.2015ZM29.6867 17.4886L63.5488 -14.9335L90.5541 12.6644L68.3357 44.1637L29.6867 17.4886ZM49.4993 50.6741L46.5569 52.5597L-4.69066 -25.6889L-1.7483 -27.5745L49.4993 50.6741ZM54.2569 -19.5279L61.0969 -12.7619L-5.55055 53.1649L-12.3906 46.3988L54.2569 -19.5279ZM-10.8757 -6.47357L-8.96217 -9.18647L68.3357 44.1637L66.4221 46.8766L-10.8757 -6.47357ZM-4.17527 49.9107L-9.98652 43.972L57.7375 -20.8723L63.5488 -14.9335L-4.17527 49.9107Z" fill="#FFD61B" mask="url(#path-10-inside-4_2_2483)"/>
<defs>
<radialGradient id="paint0_diamond_2_2483" cx="0" cy="0" r="1" gradientUnits="userSpaceOnUse" gradientTransform="translate(3.8343 3.8343) rotate(90) scale(3.8343)">
<stop stop-color="#A6A6A6"/>
<stop offset="1" stop-color="#A6A6A6"/>
</radialGradient>
<linearGradient id="paint1_linear_2_2483" x1="17.2828" y1="24.8963" x2="15.096" y2="27.107" gradientUnits="userSpaceOnUse">
<stop stop-color="#A6A6A6"/>
<stop offset="1" stop-color="#A6A6A6"/>
</linearGradient>
<linearGradient id="paint2_linear_2_2483" x1="23.9138" y1="24.4987" x2="25.9018" y2="26.5084" gradientUnits="userSpaceOnUse">
<stop stop-color="#A6A6A6"/>
<stop offset="1" stop-color="#A6A6A6"/>
</linearGradient>
<linearGradient id="paint3_linear_2_2483" x1="17.4837" y1="16.5466" x2="15.297" y2="14.3359" gradientUnits="userSpaceOnUse">
<stop stop-color="#A6A6A6"/>
<stop offset="1" stop-color="#A6A6A6"/>
</linearGradient>
<linearGradient id="paint4_linear_2_2483" x1="24.3158" y1="16.9442" x2="26.5026" y2="14.7335" gradientUnits="userSpaceOnUse">
<stop stop-color="#A7A7A7"/>
<stop offset="1" stop-color="#A6A6A6"/>
</linearGradient>
</defs>
</svg>
