<svg width="58" height="46" viewBox="0 0 58 46" fill="none" xmlns="http://www.w3.org/2000/svg">
<path d="M49.8571 22.9614C49.3837 22.488 48.6163 22.488 48.1429 22.9614L40.429 30.6753C39.9556 31.1486 39.9556 31.9161 40.429 32.3895C40.9024 32.8628 41.6698 32.8628 42.1432 32.3895L49 25.5327L55.8568 32.3895C56.3302 32.8628 57.0976 32.8628 57.571 32.3895C58.0444 31.9161 58.0444 31.1486 57.571 30.6753L49.8571 22.9614ZM44.0521 37.2555L43.1303 36.4684V36.4684L44.0521 37.2555ZM17.6717 41.2745L18.3192 40.2498L17.6717 41.2745ZM10.1586 29.5563C9.96196 28.9164 9.28379 28.5571 8.64389 28.7538C8.004 28.9505 7.6447 29.6286 7.84137 30.2685L10.1586 29.5563ZM47.7879 23.8185C47.7879 28.4619 46.1347 32.9502 43.1303 36.4684L44.9739 38.0426C48.3543 34.084 50.2121 29.0371 50.2121 23.8185H47.7879ZM43.1303 36.4684C40.1262 39.9864 35.9707 42.3011 31.4193 42.9945L31.7844 45.3911C36.914 44.6096 41.5934 42.0015 44.9739 38.0426L43.1303 36.4684ZM31.4193 42.9945C26.868 43.6879 22.2201 42.7145 18.3192 40.2498L17.0243 42.2993C21.4177 45.0751 26.6548 46.1725 31.7844 45.3911L31.4193 42.9945ZM18.3192 40.2498C14.418 37.785 11.5218 33.9914 10.1586 29.5563L7.84137 30.2685C9.37379 35.2544 12.6311 39.5236 17.0243 42.2993L18.3192 40.2498Z" fill="#2B52DB"/>
<path d="M8.1429 23.4632C8.61626 23.9365 9.38374 23.9365 9.8571 23.4632L17.571 15.7493C18.0443 15.2759 18.0443 14.5084 17.571 14.0351C17.0976 13.5617 16.3301 13.5617 15.8568 14.0351L9 20.8919L2.1432 14.0351C1.66984 13.5617 0.902362 13.5617 0.429 14.0351C-0.0443618 14.5085 -0.0443618 15.2759 0.429004 15.7493L8.1429 23.4632ZM13.9479 9.16905L14.8697 9.95617L14.8697 9.95617L13.9479 9.16905ZM26.3981 2.23179L26.5807 3.43009L26.3981 2.23179ZM40.3283 5.15003L39.6808 6.17475L39.6808 6.17475L40.3283 5.15003ZM47.8414 16.8682C48.038 17.5081 48.7162 17.8674 49.3561 17.6708C49.996 17.4741 50.3553 16.7959 50.1586 16.156L47.8414 16.8682ZM10.2121 22.6061C10.2121 17.9626 11.8653 13.4744 14.8697 9.95617L13.0261 8.38192C9.64574 12.3405 7.78788 17.3874 7.78788 22.6061L10.2121 22.6061ZM14.8697 9.95617C17.8738 6.43815 22.0293 4.12349 26.5807 3.43009L26.2156 1.0335C21.086 1.81498 16.4066 4.4231 13.0261 8.38192L14.8697 9.95617ZM26.5807 3.43009C31.132 2.7367 35.7799 3.71007 39.6808 6.17475L40.9757 4.12531C36.5823 1.34947 31.3452 0.25201 26.2156 1.0335L26.5807 3.43009ZM39.6808 6.17475C43.582 8.63958 46.4782 12.4331 47.8414 16.8682L50.1586 16.156C48.6262 11.1702 45.3689 6.901 40.9757 4.12531L39.6808 6.17475Z" fill="#2B52DB"/>
<circle cx="29" cy="24.0003" r="5" fill="#2B52DB"/>
</svg>
