<svg width="73" height="86" viewBox="0 0 73 86" fill="none" xmlns="http://www.w3.org/2000/svg">
<path d="M72.6158 49.44C72.6158 69.4637 56.3856 85.6939 36.3619 85.6939C16.3382 85.6939 0.108002 69.4637 0.108002 49.44C0.108002 29.4163 16.3382 13.1861 36.3619 13.1861C56.3856 13.1861 72.6158 29.4163 72.6158 49.44Z" fill="url(#paint0_radial_2_1555)"/>
<path d="M48.1183 36.1142L33.3591 42.0254L49.5247 82.3961L54.8323 74.2702L64.2838 76.4849L48.1183 36.1142Z" fill="url(#paint1_linear_2_1555)"/>
<path d="M48.0213 36.3459L63.9982 76.237L54.8755 74.0978L54.7569 74.0708L54.6869 74.1732L49.5624 82.0135L33.5908 42.1277L48.0213 36.3459ZM48.1183 36.1142L33.3591 42.0254L49.5247 82.3907L54.8323 74.2648L64.2838 76.4795L48.1183 36.1142Z" fill="url(#paint2_linear_2_1555)"/>
<path d="M32.6751 37.4182L47.4342 43.3294L31.2687 83.6948L25.961 75.5689L16.5096 77.7836L32.6751 37.4182Z" fill="url(#paint3_linear_2_1555)"/>
<path d="M32.7721 37.6446L47.2025 43.4264L31.2256 83.3176L26.1011 75.4773L26.0364 75.3749L25.9179 75.4019L16.7951 77.5411L32.7721 37.6446ZM32.6751 37.4182L16.5096 77.7836L25.961 75.5689L31.2687 83.6948L47.4342 43.3294L32.6751 37.4182Z" fill="url(#paint4_linear_2_1555)"/>
<path d="M65.6102 49.0036C65.5994 50.771 64.1984 52.6085 62.501 53.0935C60.8036 53.5784 58.9069 55.3243 58.298 56.984C57.6837 58.6383 55.7384 59.8884 53.9764 59.7645C52.2143 59.6351 49.838 60.6374 48.6956 61.9791C47.5533 63.3263 45.2955 63.8382 43.6843 63.1161C42.0731 62.3941 39.4974 62.518 37.9617 63.3909C36.426 64.2639 34.1359 63.9729 32.8642 62.7443C31.5979 61.5157 29.1353 60.7506 27.3948 61.0469C25.6543 61.3433 23.6013 60.2871 22.8254 58.6975C22.0548 57.1079 20.0018 55.5506 18.2667 55.2327C16.5316 54.9148 14.9581 53.2174 14.7803 51.4608C14.6025 49.7041 13.2069 47.5379 11.6819 46.6434C10.157 45.7489 9.26248 43.6205 9.69357 41.9069C10.1246 40.1934 9.55346 37.6823 8.42726 36.319C7.30106 34.9611 7.18791 32.6495 8.17939 31.1892C9.17088 29.7289 9.49419 27.1693 8.90145 25.5097C8.30872 23.8446 8.99306 21.6407 10.421 20.6061C11.8544 19.5715 13.0291 17.2814 13.0398 15.514C13.0506 13.7466 14.4462 11.9091 16.149 11.4241C17.8464 10.9391 19.7431 9.19326 20.352 7.5336C20.9663 5.87932 22.9116 4.62919 24.6736 4.75313C26.4357 4.88245 28.812 3.88019 29.9544 2.53845C31.0967 1.19132 33.3545 0.679409 34.9657 1.40147C36.5769 2.12353 39.1526 1.99959 40.6883 1.12665C42.224 0.253715 44.5141 0.544693 45.7858 1.77327C47.0521 3.00186 49.5147 3.76703 51.2552 3.47066C52.9957 3.17429 55.0487 4.23044 55.8246 5.82005C56.5952 7.40966 58.6482 8.96694 60.3833 9.28486C62.1184 9.60279 63.6919 11.3002 63.8697 13.0568C64.0529 14.8135 65.4431 16.9797 66.9681 17.8742C68.493 18.7686 69.3875 20.8971 68.9564 22.6107C68.5254 24.3242 69.0965 26.8353 70.2227 28.1985C71.3489 29.5565 71.4621 31.8681 70.4706 33.3284C69.4791 34.7887 69.1558 37.3482 69.7486 39.0079C70.3413 40.673 69.6569 42.8769 68.229 43.9115C66.801 44.946 65.621 47.2362 65.6102 49.0036Z" fill="url(#paint5_linear_2_1555)"/>
<path d="M9.93132 32.2507C9.93132 16.0151 23.0901 2.85637 39.3257 2.85637C55.5612 2.85637 68.72 16.0151 68.72 32.2507C68.72 48.4863 55.5612 61.645 39.3257 61.645C23.0955 61.645 9.93132 48.4863 9.93132 32.2507Z" fill="url(#paint6_linear_2_1555)"/>
<path d="M67.8405 32.2507C67.8405 48.0013 55.0751 60.7667 39.3245 60.7667C23.5739 60.7667 10.8085 48.0013 10.8085 32.2507C10.8085 16.5001 23.5739 3.73468 39.3245 3.73468C55.0751 3.74007 67.8405 16.5055 67.8405 32.2507Z" fill="url(#paint7_radial_2_1555)"/>
<path d="M12.598 32.2507C12.598 17.4915 24.5659 5.52365 39.325 5.52365C54.0842 5.52365 66.0521 17.4915 66.0521 32.2507C66.0521 47.0098 54.0842 58.9777 39.325 58.9777C24.5659 58.9831 12.598 47.0152 12.598 32.2507Z" fill="url(#paint8_linear_2_1555)"/>
<path d="M39.3258 58.1748C53.6434 58.1748 65.25 46.5682 65.25 32.2507C65.25 17.9332 53.6434 6.32657 39.3258 6.32657C25.0083 6.32657 13.4017 17.9332 13.4017 32.2507C13.4017 46.5682 25.0083 58.1748 39.3258 58.1748Z" fill="url(#paint9_radial_2_1555)"/>
<path opacity="0.2" d="M21.3013 54.3436L39.3258 32.2507L20.7139 53.8424C20.9079 54.0149 21.1019 54.1819 21.3013 54.3436ZM18.8549 52.0912L39.3312 32.2561L18.3268 51.5362C18.4939 51.7194 18.6717 51.9026 18.8549 52.0912ZM33.1344 60.0877L39.3312 32.2561L32.3854 59.9153C32.6279 59.9746 32.8812 60.0285 33.1344 60.0877ZM26.873 57.9108L39.3258 32.2507L26.1886 57.5551C26.415 57.6791 26.6413 57.7976 26.873 57.9108ZM36.3945 60.6212L39.3258 32.2561L35.6293 60.5242C35.888 60.5565 36.1412 60.5942 36.3945 60.6212ZM29.9391 59.1771L39.3258 32.2507L29.2116 58.913C29.4541 59.01 29.6966 59.0962 29.9391 59.1771ZM11.3164 37.5853L39.3258 32.2507L11.1816 36.8255C11.2247 37.0842 11.2679 37.3374 11.3164 37.5853ZM10.8907 34.2929L39.3258 32.2507L10.8422 33.5224C10.8583 33.781 10.8745 34.0343 10.8907 34.2929ZM12.1139 40.7968L39.3258 32.2507L11.8983 40.0532C11.9738 40.3011 12.0384 40.5544 12.1139 40.7968ZM16.6887 49.5855L39.3258 32.2561L16.2253 48.9712C16.3816 49.1706 16.5324 49.3808 16.6887 49.5855ZM14.8243 46.8374L39.3258 32.2507L14.4417 46.1692C14.5656 46.3955 14.6949 46.6218 14.8243 46.8374ZM13.2993 43.8952L39.3312 32.2561L12.9922 43.1893C13.0892 43.4264 13.1916 43.6581 13.2993 43.8952ZM39.3258 60.7667C39.4552 60.7667 39.5845 60.7613 39.7138 60.7559L39.3258 32.2507L38.9433 60.7559C39.0726 60.7613 39.1965 60.7667 39.3258 60.7667ZM60.3357 51.5308L39.3312 32.2507L59.8076 52.0858C59.98 51.9026 60.1632 51.7194 60.3357 51.5308ZM62.4264 48.9658L39.3258 32.2507L61.963 49.5801C62.1246 49.3807 62.2755 49.1706 62.4264 48.9658ZM65.6649 43.1893L39.3258 32.2561L65.3578 43.8952C65.4601 43.6581 65.5679 43.4264 65.6649 43.1893ZM64.2154 46.1746L39.3312 32.2561L63.8328 46.8428C63.9621 46.6164 64.0861 46.3955 64.2154 46.1746ZM67.4754 36.8309L39.3312 32.2561L67.3407 37.5907C67.3838 37.3374 67.4323 37.0842 67.4754 36.8309ZM66.7534 40.0532L39.3258 32.2507L66.5378 40.7968C66.6187 40.5544 66.6833 40.3011 66.7534 40.0532ZM10.8422 30.979L39.3258 32.2507L10.8907 30.2084C10.8745 30.4671 10.8583 30.7203 10.8422 30.979ZM49.4401 58.9184L39.3312 32.2561L48.718 59.1825C48.9551 59.0962 49.1976 59.01 49.4401 58.9184ZM57.9432 53.8424L39.3258 32.2507L57.3558 54.3436C57.5552 54.1819 57.7492 54.0149 57.9432 53.8424ZM43.0224 60.5242L39.3258 32.2561L42.2572 60.6212C42.5158 60.5942 42.7691 60.5565 43.0224 60.5242ZM46.2716 59.9099L39.3258 32.2507L45.5226 60.0823C45.7759 60.0285 46.0238 59.9746 46.2716 59.9099ZM55.3136 55.8685L39.3258 32.2561L54.6669 56.2888C54.8879 56.1487 55.1034 56.0086 55.3136 55.8685ZM52.4684 57.5605L39.3258 32.2561L51.7787 57.9162C52.0104 57.7976 52.2421 57.6791 52.4684 57.5605ZM23.9847 56.2834L39.3258 32.2507L23.3381 55.8631C23.5537 56.0086 23.7692 56.1487 23.9847 56.2834ZM57.3558 10.1631L39.3312 32.2561L57.9432 10.6643C57.7492 10.4918 57.5552 10.3248 57.3558 10.1631ZM54.6669 8.22328L39.3258 32.2561L55.3136 8.64358C55.1034 8.4927 54.8825 8.35799 54.6669 8.22328ZM59.8022 12.4155L39.3258 32.2507L60.3303 12.9706C60.1578 12.782 59.98 12.5988 59.8022 12.4155ZM48.7126 5.32426L39.3258 32.2507L49.4347 5.5883C49.1976 5.49669 48.9551 5.41048 48.7126 5.32426ZM61.963 14.9212L39.3258 32.2507L62.421 15.5355C62.2755 15.3307 62.1193 15.126 61.963 14.9212ZM51.7787 6.59595L39.3258 32.2507L52.463 6.9462C52.2367 6.82766 52.0104 6.70911 51.7787 6.59595ZM65.3578 20.6115L39.3312 32.2561L65.6703 21.3174C65.5679 21.0803 65.4601 20.8432 65.3578 20.6115ZM67.761 30.2138L39.3258 32.2561L67.8095 30.9844C67.7987 30.7203 67.7826 30.4671 67.761 30.2138ZM67.3353 26.916L39.3258 32.2507L67.4701 27.6758C67.4323 27.4226 67.3838 27.1693 67.3353 26.916ZM67.8095 33.5224L39.3258 32.2507L67.761 34.2929C67.7826 34.0343 67.7987 33.781 67.8095 33.5224ZM66.5378 23.7045L39.3258 32.2507L66.7534 24.4481C66.6833 24.2002 66.6187 23.9524 66.5378 23.7045ZM45.5226 4.41899L39.3258 32.2507L46.2716 4.59142C46.0238 4.53215 45.7759 4.47826 45.5226 4.41899ZM63.8274 17.664L39.3258 32.2507L64.21 18.3321C64.0861 18.1112 63.9621 17.8849 63.8274 17.664ZM23.3435 8.6382L39.3312 32.2507L23.9901 8.21789C23.7746 8.358 23.5537 8.49271 23.3435 8.6382ZM16.2307 15.5409L39.3258 32.2561L16.6887 14.9212C16.5324 15.126 16.3816 15.3307 16.2307 15.5409ZM18.3214 12.9759L39.3258 32.2561L18.8495 12.4209C18.6717 12.5988 18.4939 12.782 18.3214 12.9759ZM14.4417 18.3321L39.3258 32.2507L14.8243 17.664C14.6949 17.8849 14.571 18.1058 14.4417 18.3321ZM20.7139 10.6589L39.3258 32.2507L21.3013 10.1578C21.1019 10.3248 20.9079 10.4918 20.7139 10.6589ZM42.2572 3.88553L39.3258 32.2507L43.0224 3.98252C42.7691 3.95019 42.5158 3.91247 42.2572 3.88553ZM12.9868 21.3174L39.3258 32.2561L13.2993 20.6115C13.1916 20.8432 13.0892 21.0803 12.9868 21.3174ZM11.9037 24.4481L39.3312 32.2507L12.1192 23.7045C12.0384 23.9524 11.9738 24.2002 11.9037 24.4481ZM11.1816 27.6758L39.3258 32.2507L11.3164 26.916C11.2679 27.1693 11.2247 27.4226 11.1816 27.6758ZM39.3258 3.74004C39.1965 3.74004 39.0726 3.74543 38.9433 3.75082L39.3258 32.2561L39.7138 3.75082C39.5845 3.74543 39.4552 3.74004 39.3258 3.74004ZM32.38 4.59142L39.3258 32.2507L33.1344 4.41899C32.8812 4.47826 32.6279 4.53215 32.38 4.59142ZM35.6293 3.98252L39.3258 32.2507L36.3945 3.88553C36.1412 3.91247 35.888 3.95019 35.6293 3.98252ZM29.217 5.5883L39.3312 32.2507L29.9391 5.32426C29.6966 5.41048 29.4541 5.49669 29.217 5.5883ZM26.1886 6.9462L39.3258 32.2507L26.873 6.59595C26.6413 6.70911 26.415 6.82766 26.1886 6.9462Z" fill="url(#paint10_radial_2_1555)"/>
<path d="M37.4779 47.1769V24.9439H33.7706V21.9048C34.816 21.7808 35.8074 21.3875 36.7558 20.7193C37.7042 20.0511 38.3778 19.2428 38.7927 18.2891H41.8318V47.1769H37.4779Z" fill="url(#paint11_linear_2_1555)"/>
<path d="M55.8201 35.6185L53.8748 34.4654L51.9242 35.6185L52.4199 33.4092L50.7172 31.9166L52.9749 31.701L53.8694 29.6211L54.7693 31.701L57.0271 31.9112L55.3243 33.4092L55.8201 35.6185Z" fill="url(#paint12_linear_2_1555)"/>
<path d="M25.6107 35.6185L23.6601 34.4654L21.7148 35.6185L22.2106 33.4092L20.5078 31.9166L22.7656 31.701L23.6601 29.6211L24.56 31.701L26.8124 31.9112L25.115 33.4092L25.6107 35.6185Z" fill="url(#paint13_linear_2_1555)"/>
<path d="M36.5991 9.79675L37.7738 13.7519V9.79675H38.6629V15.681H37.7092L36.4914 11.9144V15.681H35.6022V9.79675H36.5991Z" fill="url(#paint14_linear_2_1555)"/>
<path d="M40.8442 9.72672C41.2375 9.72672 41.5662 9.86682 41.841 10.1416C42.1159 10.4164 42.2506 10.7505 42.2506 11.1385V14.3501C42.2506 14.7434 42.1105 15.0721 41.8357 15.3469C41.5608 15.6217 41.2268 15.7565 40.8388 15.7565C40.4454 15.7565 40.1167 15.6164 39.8419 15.3415C39.5725 15.0667 39.4324 14.7326 39.4324 14.3447V11.1331C39.4324 10.7398 39.5725 10.4111 39.8473 10.1362C40.1275 9.86143 40.4616 9.72672 40.8442 9.72672ZM41.3291 11.1116C41.3291 10.9715 41.2806 10.8529 41.1836 10.7505C41.0867 10.6535 40.9627 10.605 40.8226 10.605C40.6825 10.605 40.564 10.6535 40.4616 10.7505C40.3592 10.8475 40.3107 10.9661 40.3107 11.1116V14.3285C40.3107 14.4686 40.3592 14.5872 40.4616 14.6895C40.564 14.7865 40.6825 14.835 40.8226 14.835C40.9627 14.835 41.0813 14.7865 41.1836 14.6895C41.2806 14.5925 41.3291 14.474 41.3291 14.3285V11.1116Z" fill="url(#paint15_linear_2_1555)"/>
<path d="M42.866 14.7973H43.7551V15.6864H42.866V14.7973Z" fill="url(#paint16_linear_2_1555)"/>
<path d="M29.5651 52.9587H28.3203V52.4791H29.5651V52.9587Z" fill="url(#paint17_linear_2_1555)"/>
<path d="M31.7417 49.5478H32.5123C32.9326 49.5478 33.2397 49.6501 33.4391 49.8549C33.6385 50.0597 33.7355 50.383 33.7355 50.8194C33.7355 51.4391 33.4984 51.8271 33.0296 51.9941C33.5415 52.0965 33.8001 52.5061 33.8001 53.212C33.8001 53.5999 33.7085 53.8963 33.5199 54.1064C33.3313 54.3166 33.0673 54.4244 32.7224 54.4244H31.7417V49.5478ZM32.3883 50.0489V51.7409C32.6362 51.7355 32.8194 51.6708 32.9326 51.5469C33.0457 51.423 33.105 51.2128 33.105 50.9057C33.105 50.577 33.0565 50.3506 32.9595 50.2267C32.8625 50.1082 32.6685 50.0489 32.3883 50.0489ZM32.3883 52.2312V53.9286C32.647 53.9232 32.8356 53.8693 32.9434 53.7562C33.0565 53.6484 33.1104 53.4329 33.1104 53.1203C33.1104 52.7863 33.0565 52.5492 32.9434 52.4252C32.8302 52.2959 32.647 52.2312 32.3883 52.2312Z" fill="url(#paint18_linear_2_1555)"/>
<path d="M36.7476 54.419H36.0632L35.2981 52.1342H35.2388V54.419H34.5814V49.5478H35.4921C36.2357 49.5478 36.6075 49.9627 36.6075 50.7925C36.6075 51.1697 36.5536 51.4553 36.4404 51.6439C36.3327 51.8325 36.1548 51.978 35.907 52.075L36.7476 54.419ZM35.2442 51.687C35.4974 51.6816 35.686 51.6223 35.7992 51.5038C35.9124 51.3852 35.9716 51.1751 35.9716 50.8733C35.9716 50.5824 35.9177 50.3722 35.8154 50.2483C35.713 50.1243 35.5352 50.0597 35.2873 50.0597H35.2496V51.687H35.2442Z" fill="url(#paint19_linear_2_1555)"/>
<path d="M39.9536 54.419H39.3177L39.1399 53.4544H38.1107L37.9275 54.419H37.3078L38.3586 49.5478H38.8974L39.9536 54.419ZM39.0537 52.9641L38.628 50.6524H38.6118L38.2077 52.9641H39.0537Z" fill="url(#paint20_linear_2_1555)"/>
<path d="M43.0305 54.419H42.5132L41.2684 51.0727H41.2523V54.4136H40.6649V49.5424H41.1876L42.4323 52.8887L42.4485 52.8941V49.5478H43.0251V54.419H43.0305Z" fill="url(#paint21_linear_2_1555)"/>
<path d="M44.0174 49.5478H44.9658C45.413 49.5478 45.7687 49.7148 46.0273 50.0543C46.286 50.3938 46.4153 51.0296 46.4153 51.9618C46.4153 52.8617 46.3021 53.4975 46.0758 53.864C45.8495 54.2358 45.44 54.419 44.8526 54.419H44.0174V49.5478V49.5478ZM44.6748 50.0489V53.9286C44.9496 53.9286 45.1598 53.8801 45.2999 53.7777C45.4454 53.6754 45.5478 53.4868 45.6178 53.2066C45.6879 52.9264 45.7256 52.5114 45.7256 51.9564C45.7256 51.2451 45.6609 50.7548 45.5262 50.4746C45.3969 50.1944 45.1382 50.0543 44.761 50.0543H44.6748V50.0489Z" fill="url(#paint22_linear_2_1555)"/>
<path d="M49.7337 52.9587H48.489V52.4791H49.7337V52.9587Z" fill="url(#paint23_linear_2_1555)"/>
<defs>
<radialGradient id="paint0_radial_2_1555" cx="0" cy="0" r="1" gradientUnits="userSpaceOnUse" gradientTransform="translate(36.3624 49.4413) scale(35.6325)">
<stop offset="0.0753" stop-color="#828282"/>
<stop offset="0.1954" stop-color="#A2A2A2"/>
<stop offset="0.3451" stop-color="#C4C4C4"/>
<stop offset="0.4989" stop-color="#DEDEDE"/>
<stop offset="0.6565" stop-color="#F0F0F0"/>
<stop offset="0.8203" stop-color="#FBFBFB"/>
<stop offset="1" stop-color="white"/>
</radialGradient>
<linearGradient id="paint1_linear_2_1555" x1="55.6003" y1="76.3904" x2="43.8267" y2="46.6222" gradientUnits="userSpaceOnUse">
<stop stop-color="#EEBE47"/>
<stop offset="0.1204" stop-color="#F8DB77"/>
<stop offset="0.2097" stop-color="#FFEE96"/>
<stop offset="0.4462" stop-color="#A2621E"/>
<stop offset="0.6667" stop-color="#EEA54C"/>
<stop offset="1" stop-color="#EEBE47"/>
</linearGradient>
<linearGradient id="paint2_linear_2_1555" x1="33.3605" y1="59.2555" x2="64.2863" y2="59.2555" gradientUnits="userSpaceOnUse">
<stop stop-color="#EEBE47"/>
<stop offset="0.1204" stop-color="#F8DB77"/>
<stop offset="0.2097" stop-color="#FFEE96"/>
<stop offset="0.4462" stop-color="#A2621E"/>
<stop offset="0.6667" stop-color="#EEA54C"/>
<stop offset="1" stop-color="#EEBE47"/>
</linearGradient>
<linearGradient id="paint3_linear_2_1555" x1="25.195" y1="77.6921" x2="37.7516" y2="45.9438" gradientUnits="userSpaceOnUse">
<stop stop-color="#EEBE47"/>
<stop offset="0.1204" stop-color="#F8DB77"/>
<stop offset="0.2097" stop-color="#FFEE96"/>
<stop offset="0.4462" stop-color="#A2621E"/>
<stop offset="0.6667" stop-color="#EEA54C"/>
<stop offset="1" stop-color="#EEBE47"/>
</linearGradient>
<linearGradient id="paint4_linear_2_1555" x1="16.509" y1="60.5576" x2="47.4346" y2="60.5576" gradientUnits="userSpaceOnUse">
<stop stop-color="#EEBE47"/>
<stop offset="0.1204" stop-color="#F8DB77"/>
<stop offset="0.2097" stop-color="#FFEE96"/>
<stop offset="0.4462" stop-color="#A2621E"/>
<stop offset="0.6667" stop-color="#EEA54C"/>
<stop offset="1" stop-color="#EEBE47"/>
</linearGradient>
<linearGradient id="paint5_linear_2_1555" x1="14.191" y1="8.44452" x2="60.8838" y2="52.6706" gradientUnits="userSpaceOnUse">
<stop stop-color="#EEBE47"/>
<stop offset="0.1204" stop-color="#F8DB77"/>
<stop offset="0.2097" stop-color="#FFEE96"/>
<stop offset="0.4462" stop-color="#A2621E"/>
<stop offset="0.6667" stop-color="#EEA54C"/>
<stop offset="1" stop-color="#EEBE47"/>
</linearGradient>
<linearGradient id="paint6_linear_2_1555" x1="17.5932" y1="56.4744" x2="60.6151" y2="8.52923" gradientUnits="userSpaceOnUse">
<stop stop-color="#EEBE47"/>
<stop offset="0.1204" stop-color="#F8DB77"/>
<stop offset="0.2097" stop-color="#FFEE96"/>
<stop offset="0.4462" stop-color="#A2621E"/>
<stop offset="0.6667" stop-color="#EEA54C"/>
<stop offset="1" stop-color="#EEBE47"/>
</linearGradient>
<radialGradient id="paint7_radial_2_1555" cx="0" cy="0" r="1" gradientUnits="userSpaceOnUse" gradientTransform="translate(20.2146 9.12045) scale(51.9249)">
<stop stop-color="#304053"/>
<stop offset="0.2258" stop-color="#2C3C4F"/>
<stop offset="0.5161" stop-color="#0D1D30"/>
<stop offset="1" stop-color="#060D29"/>
</radialGradient>
<linearGradient id="paint8_linear_2_1555" x1="5.88366" y1="2.04407" x2="74.893" y2="64.3789" gradientUnits="userSpaceOnUse">
<stop stop-color="#EEBE47"/>
<stop offset="0.1204" stop-color="#F8DB77"/>
<stop offset="0.2097" stop-color="#FFEE96"/>
<stop offset="0.4462" stop-color="#A2621E"/>
<stop offset="0.6667" stop-color="#EEA54C"/>
<stop offset="1" stop-color="#EEBE47"/>
</linearGradient>
<radialGradient id="paint9_radial_2_1555" cx="0" cy="0" r="1" gradientUnits="userSpaceOnUse" gradientTransform="translate(21.9544 11.2241) scale(47.202)">
<stop stop-color="#304053"/>
<stop offset="0.2258" stop-color="#2C3C4F"/>
<stop offset="0.5161" stop-color="#0D1D30"/>
<stop offset="1" stop-color="#060D29"/>
</radialGradient>
<radialGradient id="paint10_radial_2_1555" cx="0" cy="0" r="1" gradientUnits="userSpaceOnUse" gradientTransform="translate(23.9768 7.55958) scale(69.9447)">
<stop stop-color="#FFF1D1"/>
<stop offset="0.0538" stop-color="#FFC94C"/>
<stop offset="0.1398" stop-color="#A2621E"/>
<stop offset="0.1632" stop-color="#965B1C"/>
<stop offset="0.25" stop-color="#6E4314"/>
<stop offset="0.3426" stop-color="#4C2E0E"/>
<stop offset="0.4407" stop-color="#301D09"/>
<stop offset="0.5462" stop-color="#1B1005"/>
<stop offset="0.6626" stop-color="#0C0702"/>
<stop offset="0.7983" stop-color="#030201"/>
<stop offset="1"/>
</radialGradient>
<linearGradient id="paint11_linear_2_1555" x1="30.5982" y1="19.2513" x2="56.9186" y2="58.4161" gradientUnits="userSpaceOnUse">
<stop stop-color="#EEBE47"/>
<stop offset="0.1204" stop-color="#F8DB77"/>
<stop offset="0.2097" stop-color="#FFEE96"/>
<stop offset="0.4462" stop-color="#A2621E"/>
<stop offset="0.6667" stop-color="#EEA54C"/>
<stop offset="1" stop-color="#EEBE47"/>
</linearGradient>
<linearGradient id="paint12_linear_2_1555" x1="18.0711" y1="12.4109" x2="96.5386" y2="57.9453" gradientUnits="userSpaceOnUse">
<stop stop-color="#EEBE47"/>
<stop offset="0.1204" stop-color="#F8DB77"/>
<stop offset="0.2097" stop-color="#FFEE96"/>
<stop offset="0.4462" stop-color="#A2621E"/>
<stop offset="0.6667" stop-color="#EEA54C"/>
<stop offset="1" stop-color="#EEBE47"/>
</linearGradient>
<linearGradient id="paint13_linear_2_1555" x1="1.38107" y1="20.257" x2="79.8149" y2="65.7718" gradientUnits="userSpaceOnUse">
<stop stop-color="#EEBE47"/>
<stop offset="0.1204" stop-color="#F8DB77"/>
<stop offset="0.2097" stop-color="#FFEE96"/>
<stop offset="0.4462" stop-color="#A2621E"/>
<stop offset="0.6667" stop-color="#EEA54C"/>
<stop offset="1" stop-color="#EEBE47"/>
</linearGradient>
<linearGradient id="paint14_linear_2_1555" x1="34.4004" y1="8.67066" x2="67.9412" y2="58.5793" gradientUnits="userSpaceOnUse">
<stop stop-color="#EEBE47"/>
<stop offset="0.1204" stop-color="#F8DB77"/>
<stop offset="0.2097" stop-color="#FFEE96"/>
<stop offset="0.4462" stop-color="#A2621E"/>
<stop offset="0.6667" stop-color="#EEA54C"/>
<stop offset="1" stop-color="#EEBE47"/>
</linearGradient>
<linearGradient id="paint15_linear_2_1555" x1="36.9571" y1="6.95055" x2="70.5024" y2="56.8659" gradientUnits="userSpaceOnUse">
<stop stop-color="#EEBE47"/>
<stop offset="0.1204" stop-color="#F8DB77"/>
<stop offset="0.2097" stop-color="#FFEE96"/>
<stop offset="0.4462" stop-color="#A2621E"/>
<stop offset="0.6667" stop-color="#EEA54C"/>
<stop offset="1" stop-color="#EEBE47"/>
</linearGradient>
<linearGradient id="paint16_linear_2_1555" x1="37.4961" y1="6.59479" x2="71.0248" y2="56.4853" gradientUnits="userSpaceOnUse">
<stop stop-color="#EEBE47"/>
<stop offset="0.1204" stop-color="#F8DB77"/>
<stop offset="0.2097" stop-color="#FFEE96"/>
<stop offset="0.4462" stop-color="#A2621E"/>
<stop offset="0.6667" stop-color="#EEA54C"/>
<stop offset="1" stop-color="#EEBE47"/>
</linearGradient>
<linearGradient id="paint17_linear_2_1555" x1="13.0552" y1="31.8285" x2="40.5526" y2="67.9859" gradientUnits="userSpaceOnUse">
<stop stop-color="#EEBE47"/>
<stop offset="0.1204" stop-color="#F8DB77"/>
<stop offset="0.2097" stop-color="#FFEE96"/>
<stop offset="0.4462" stop-color="#A2621E"/>
<stop offset="0.6667" stop-color="#EEA54C"/>
<stop offset="1" stop-color="#EEBE47"/>
</linearGradient>
<linearGradient id="paint18_linear_2_1555" x1="15.642" y1="29.8514" x2="43.1474" y2="66.0193" gradientUnits="userSpaceOnUse">
<stop stop-color="#EEBE47"/>
<stop offset="0.1204" stop-color="#F8DB77"/>
<stop offset="0.2097" stop-color="#FFEE96"/>
<stop offset="0.4462" stop-color="#A2621E"/>
<stop offset="0.6667" stop-color="#EEA54C"/>
<stop offset="1" stop-color="#EEBE47"/>
</linearGradient>
<linearGradient id="paint19_linear_2_1555" x1="17.4583" y1="28.4695" x2="44.9642" y2="64.6381" gradientUnits="userSpaceOnUse">
<stop stop-color="#EEBE47"/>
<stop offset="0.1204" stop-color="#F8DB77"/>
<stop offset="0.2097" stop-color="#FFEE96"/>
<stop offset="0.4462" stop-color="#A2621E"/>
<stop offset="0.6667" stop-color="#EEA54C"/>
<stop offset="1" stop-color="#EEBE47"/>
</linearGradient>
<linearGradient id="paint20_linear_2_1555" x1="19.2074" y1="27.1411" x2="46.7118" y2="63.3078" gradientUnits="userSpaceOnUse">
<stop stop-color="#EEBE47"/>
<stop offset="0.1204" stop-color="#F8DB77"/>
<stop offset="0.2097" stop-color="#FFEE96"/>
<stop offset="0.4462" stop-color="#A2621E"/>
<stop offset="0.6667" stop-color="#EEA54C"/>
<stop offset="1" stop-color="#EEBE47"/>
</linearGradient>
<linearGradient id="paint21_linear_2_1555" x1="21.5823" y1="25.3353" x2="49.0863" y2="61.5014" gradientUnits="userSpaceOnUse">
<stop stop-color="#EEBE47"/>
<stop offset="0.1204" stop-color="#F8DB77"/>
<stop offset="0.2097" stop-color="#FFEE96"/>
<stop offset="0.4462" stop-color="#A2621E"/>
<stop offset="0.6667" stop-color="#EEA54C"/>
<stop offset="1" stop-color="#EEBE47"/>
</linearGradient>
<linearGradient id="paint22_linear_2_1555" x1="23.4704" y1="23.8973" x2="50.9764" y2="60.066" gradientUnits="userSpaceOnUse">
<stop stop-color="#EEBE47"/>
<stop offset="0.1204" stop-color="#F8DB77"/>
<stop offset="0.2097" stop-color="#FFEE96"/>
<stop offset="0.4462" stop-color="#A2621E"/>
<stop offset="0.6667" stop-color="#EEA54C"/>
<stop offset="1" stop-color="#EEBE47"/>
</linearGradient>
<linearGradient id="paint23_linear_2_1555" x1="25.8344" y1="22.1135" x2="53.3318" y2="58.271" gradientUnits="userSpaceOnUse">
<stop stop-color="#EEBE47"/>
<stop offset="0.1204" stop-color="#F8DB77"/>
<stop offset="0.2097" stop-color="#FFEE96"/>
<stop offset="0.4462" stop-color="#A2621E"/>
<stop offset="0.6667" stop-color="#EEA54C"/>
<stop offset="1" stop-color="#EEBE47"/>
</linearGradient>
</defs>
</svg>
